<?xml version="1.0" encoding="utf-8"?>
<!-- Generator: Adobe Illustrator 26.3.1, SVG Export Plug-In . SVG Version: 6.00 Build 0)  -->
<svg version="1.1" id="Layer_1" xmlns="http://www.w3.org/2000/svg" xmlns:xlink="http://www.w3.org/1999/xlink" x="0px" y="0px"
	 viewBox="0 0 650.3 178.3" style="enable-background:new 0 0 650.3 178.3;" xml:space="preserve">
<style type="text/css">
	.st0{fill:#FFFFFF;}
</style>
<path class="st0" d="M215.9,155.9c0-5.4,4.1-8.1,9.5-8.1c6.1,0,10,4,10,9h-4.1c0-3.5-1.9-5.3-5.9-5.3c-3.6,0-5.4,1.5-5.4,4.3
	c0,2.2,1.4,3.7,6.1,5.1c7.2,2.1,9.4,4.9,9.4,9.4c0,5.7-4.1,7.9-9.9,7.9c-6.6,0-10.7-3.4-10.7-9h4.1c0,3.5,2.4,5.3,6.6,5.3
	c3.9,0,5.8-1.4,5.8-4.2c0-3.6-3.7-5-6.5-5.8C218.3,162.7,215.9,160,215.9,155.9z M239,167.4v-0.6c0-6.5,2.7-10.7,8.6-10.7
	c6,0,8.6,4.2,8.6,10.7v0.6c0,6.1-2,10.9-8.6,10.9S239,173.5,239,167.4z M242.7,166.9v0.7c0,5,1.1,7.4,4.9,7.4s4.9-2.4,4.9-7.4v-0.7
	c0-5.1-1.2-7.5-4.9-7.5C243.8,159.4,242.7,161.7,242.7,166.9L242.7,166.9z M271.3,151.3c-0.6-0.1-1.3-0.1-1.9-0.1
	c-2.4,0-3.3,1.3-3.3,4v1.4h4.5v3.3h-4.5v18.1h-3.7v-18.1H259v-3.3h3.5v-1.4c0-4.6,2.1-7.3,6.7-7.3c0.7,0,1.5,0.1,2.2,0.3
	L271.3,151.3z M285.5,177.6c-0.7,0.2-1.5,0.3-2.2,0.3c-4.6,0-6.7-2.7-6.7-7.3v-10.8h-3.5v-3.3h3.5v-5.8h3.7v5.8h4.5v3.3h-4.5v10.9
	c0,2.6,0.9,4.1,3.3,4.1c0.6,0,1.3,0,1.9-0.1L285.5,177.6z M307.5,172.1l3.5-15.6h3.9l-5.9,21.4h-3l-4.8-15.5l-4.7,15.5h-3l-5.8-21.4
	h3.9l3.6,15.3l4.6-15.3h3L307.5,172.1z M330.2,177.9c-0.3-0.7-0.5-1.5-0.5-2.3c-1.5,1.7-3.6,2.7-5.9,2.7c-3.8,0-6.9-2.4-6.9-6.3
	c0-4.6,3.2-7.2,9.4-7.2h3.3v-1.4c0-2.7-1-4-4-4c-2.5,0-3.9,1.2-4.1,3.3h-3.7c0.3-4,3.3-6.6,8-6.6c5,0,7.5,2.6,7.5,7v9.7
	c-0.1,1.7,0.2,3.5,0.9,5.1L330.2,177.9z M329.6,171.4V168h-2.6c-4.6,0-6.5,1.2-6.5,3.6c0,2.3,1.3,3.4,3.8,3.4
	C326.7,174.9,328.8,173.5,329.6,171.4L329.6,171.4z M349,159.6c-0.7-0.2-1.5-0.3-2.3-0.3c-2.4,0-4,1.9-4.7,4v14.5h-3.7v-21.4h3.6
	v2.7c1-1.9,2.9-3.1,5-3.1c0.7,0,1.4,0.1,2.1,0.4L349,159.6z M368.1,171.9c-0.8,3.8-4.2,6.4-8.1,6.4c-6.4,0-9.2-4.5-9.2-10.4v-0.7
	c-0.2-6.5,3.5-11.2,8.7-11.2c5.6,0,8.6,4,8.6,10.9v1.8h-13.5c0.2,3.8,1.7,6.2,5.4,6.2c1.9,0.1,3.6-1.2,4.1-3.1L368.1,171.9z
	 M354.7,165.5h9.6c-0.2-4.1-1.7-6.2-4.8-6.2C356.6,159.4,355.2,161.6,354.7,165.5L354.7,165.5z M215.4,127.4h57.5
	c12.2,0,22.2-9.4,22.2-20.9v-3.9c0-11.3-9.4-20.5-21.4-20.9h-0.4h-38.9c-3.3,0.1-6-2.5-6.1-5.7v-3.8c0.1-3.3,2.8-5.8,6.1-5.8h56.3
	V51.3h-56.3c-12.2,0-22.2,9.4-22.2,20.9V76c0,11.5,10,20.9,22.2,20.9h38.5c3.3-0.1,6,2.5,6.1,5.8v3.9c-0.1,3.3-2.8,5.8-6.1,5.7
	h-57.5V127.4z M314.1,51.3h16.1v76h-16.1V51.3z M539.3,127.3h16.1V72.2c0-11.5-10-20.9-22.2-20.9H453v76h16V66.5h26.8v60.9h16.1
	V66.5h21.3c3.3-0.1,6,2.5,6.1,5.7L539.3,127.3z M650.3,72.2c0-11.5-10-20.9-22.2-20.9h-51.1v15.1H628c3.3-0.1,6,2.5,6.1,5.7v9.5
	h-40.6c-12.2,0-22.2,9.4-22.2,20.9v3.9c0,11.5,10,20.9,22.2,20.9h56.6L650.3,72.2z M634.1,112.2h-40.5c-3.3,0.1-6-2.5-6.1-5.7v-3.9
	c0.1-3.3,2.9-5.8,6.1-5.8h40.6L634.1,112.2z M351.9,106.5c0,11.5,10,20.9,22.2,20.9h56.7V81.8h-42.3v15.1h26.2v15.4h-40.5
	c-3.3,0.1-6-2.5-6.1-5.7V72.2c0.1-3.3,2.9-5.8,6.1-5.8h56.5V51.3h-56.6c-12.3,0-22.2,9.4-22.2,20.9L351.9,106.5z M151,66.9
	c-10.7-3.3-21.8-5.5-32.9-6.6c-1.1-11.2-3.4-22.2-6.6-32.9C104.2,4.7,95.3,0,89.2,0C83,0,74.1,4.7,66.9,27.3
	c-3.3,10.7-5.5,21.8-6.6,32.9c-11.2,1.1-22.2,3.4-32.9,6.6C4.7,74.1,0,83,0,89.1c0,6.2,4.7,15.1,27.3,22.3
	c10.7,3.3,21.8,5.5,32.9,6.6c1.2,11.2,3.4,22.2,6.7,33c7.2,22.6,16.1,27.3,22.3,27.3c6.2,0,15.1-4.7,22.3-27.3
	c3.3-10.7,5.5-21.8,6.6-32.9c11.2-1.1,22.2-3.4,33-6.6c22.6-7.2,27.3-16.1,27.3-22.3C178.3,83,173.6,74.1,151,66.9z M86.8,171.9
	l-0.5-0.2c-3.7-1.8-7.5-6.8-10.8-14.5c-0.2-0.5-0.4-1-0.6-1.5c-0.1-0.3-0.2-0.5-0.3-0.8c-0.1-0.3-0.3-0.7-0.4-1.1
	c-0.1-0.4-0.4-1-0.6-1.5l-0.2-0.7c-0.3-0.8-0.5-1.5-0.8-2.3v-0.1c-3-9.9-5.1-20.1-6.2-30.5c7.4,0.6,15,1,22.8,1s15.4-0.3,22.8-1
	c-3.8,32.7-13.7,53.7-22.8,53.7c-0.7,0-1.4-0.1-2-0.4L86.8,171.9z M23.8,103.9c-0.6-0.2-1.1-0.4-1.7-0.7l-0.9-0.4l-0.7-0.3
	c-7.4-3.3-12.3-7-14-10.7c-0.1-0.1-0.1-0.2-0.1-0.3l-0.2-0.4c-0.2-0.6-0.3-1.3-0.3-2c0-9.1,21-18.9,53.7-22.8c-0.6,7.4-1,15-1,22.8
	s0.3,15.5,1,22.8c-14.4-1.7-26.5-4.5-35.5-8L23.8,103.9z M64.7,89.2c0-8.3,0.4-16.1,1-23.4c7.3-0.7,15.2-1,23.4-1
	c6.8,0,13.3,0.3,19.4,0.7l-43.2,43.2C65,102.4,64.7,95.9,64.7,89.2L64.7,89.2z M66.3,59.7C70.2,27,80.1,6,89.2,6s19,21,22.8,53.7
	c-7.4-0.6-15-1-22.8-1S73.7,59,66.3,59.7L66.3,59.7z M112.9,69.6c0.5,6.2,0.7,12.8,0.7,19.6c0,8.3-0.4,16.1-1,23.4
	c-7.3,0.7-15.2,1-23.4,1c-6.9,0-13.4-0.2-19.6-0.7L112.9,69.6z M118.6,66.4c32.7,3.9,53.7,13.7,53.7,22.8s-21,19-53.7,22.8
	c0.6-7.3,1-15,1-22.8S119.3,73.7,118.6,66.4L118.6,66.4z"/>
</svg>
