<?xml version="1.0" encoding="UTF-8"?>
<!DOCTYPE svg PUBLIC "-//W3C//DTD SVG 1.1//EN" "http://www.w3.org/Graphics/SVG/1.1/DTD/svg11.dtd">
<svg xmlns="http://www.w3.org/2000/svg" version="1.1" width="1180px" height="333px" style="shape-rendering:geometricPrecision; text-rendering:geometricPrecision; image-rendering:optimizeQuality; fill-rule:evenodd; clip-rule:evenodd" xmlns:xlink="http://www.w3.org/1999/xlink">
<g><path style="opacity:1" fill="#eeedee" d="M 469.5,-0.5 C 470.5,-0.5 471.5,-0.5 472.5,-0.5C 463.209,14.7907 450.876,27.1241 435.5,36.5C 432.084,34.3128 430.25,31.3128 430,27.5C 441.39,15.5644 454.556,6.23106 469.5,-0.5 Z"/></g>
<g><path style="opacity:1" fill="#fbfbfb" d="M 452.5,100.5 C 460.993,101.166 469.66,101.5 478.5,101.5C 487.527,101.498 496.193,100.831 504.5,99.5C 506.057,95.1296 509.224,93.1296 514,93.5C 518.793,93.3114 522.293,95.3114 524.5,99.5C 525.865,100.456 527.365,101.122 529,101.5C 598.138,100.505 667.304,100.172 736.5,100.5C 738.486,92.8567 743.486,88.8567 751.5,88.5C 758.859,88.8355 763.525,92.5021 765.5,99.5C 815.156,101.495 865.156,102.162 915.5,101.5C 915.5,100.5 915.5,99.5 915.5,98.5C 918.419,75.076 931.419,60.576 954.5,55C 980.911,51.4512 999.745,61.6179 1011,85.5C 1012.63,89.6879 1013.46,94.0212 1013.5,98.5C 1013.5,99.5 1013.5,100.5 1013.5,101.5C 1037.67,101.831 1061.67,101.498 1085.5,100.5C 1088.93,84.2686 1098.93,77.7686 1115.5,81C 1125.07,84.0632 1130.4,90.5632 1131.5,100.5C 1147.5,100.5 1163.5,100.5 1179.5,100.5C 1179.5,102.5 1179.5,104.5 1179.5,106.5C 1163.13,105.849 1147.13,106.515 1131.5,108.5C 1127.49,124.017 1117.49,130.184 1101.5,127C 1091.93,123.937 1086.6,117.437 1085.5,107.5C 1061.67,106.502 1037.67,106.169 1013.5,106.5C 1013.5,107.5 1013.5,108.5 1013.5,109.5C 1009.05,137.277 992.718,152.277 964.5,154.5C 943.959,153.102 928.792,143.435 919,125.5C 916.882,120.362 915.715,115.029 915.5,109.5C 915.5,108.5 915.5,107.5 915.5,106.5C 865.156,105.838 815.156,106.505 765.5,108.5C 763.506,115.61 758.672,119.277 751,119.5C 743.25,118.909 738.417,114.909 736.5,107.5C 701.335,106.833 666.002,106.5 630.5,106.5C 594.827,106.5 559.494,107.167 524.5,108.5C 522.845,113.145 519.512,115.479 514.5,115.5C 509.339,115.424 505.673,113.091 503.5,108.5C 486.513,107.501 469.513,107.167 452.5,107.5C 452.106,134.612 441.772,156.945 421.5,174.5C 420.833,168.167 420.167,161.833 419.5,155.5C 380.167,155.5 340.833,155.5 301.5,155.5C 300.671,162.989 300.171,170.656 300,178.5C 299.184,177.177 298.017,176.511 296.5,176.5C 275.601,158.365 264.601,135.365 263.5,107.5C 252.167,107.5 240.833,107.5 229.5,107.5C 227.183,120.65 219.349,127.65 206,128.5C 193.106,127.773 185.273,121.106 182.5,108.5C 175.03,107.169 167.196,106.502 159,106.5C 150.993,106.5 143.159,106.834 135.5,107.5C 132.226,132.271 118.059,145.605 93,147.5C 68.5838,145.585 54.0838,132.585 49.5,108.5C 46.5719,107.516 43.5719,107.183 40.5,107.5C 38.5834,114.909 33.75,118.909 26,119.5C 18.5557,118.721 13.389,114.887 10.5,108C 6.84841,107.501 3.18174,107.335 -0.5,107.5C -0.5,105.167 -0.5,102.833 -0.5,100.5C 3.5,100.5 7.5,100.5 11.5,100.5C 13.2183,92.8768 18.0517,89.2101 26,89.5C 33.875,89.2131 38.7083,92.8798 40.5,100.5C 43.6248,101.479 46.9581,101.813 50.5,101.5C 50.5,100.5 50.5,99.5 50.5,98.5C 54.6905,74.815 68.8572,62.1484 93,60.5C 118.06,62.3959 132.226,75.7292 135.5,100.5C 143.159,101.166 150.993,101.5 159,101.5C 167.196,101.498 175.03,100.831 182.5,99.5C 185.282,86.7279 193.282,80.0612 206.5,79.5C 219.629,80.6332 227.296,87.6332 229.5,100.5C 240.988,101.495 252.655,101.828 264.5,101.5C 264.5,98.5 264.5,95.5 264.5,92.5C 266.211,72.6547 273.878,55.6547 287.5,41.5C 290.833,38.8333 293.833,35.8333 296.5,32.5C 308.575,21.1292 322.908,13.9626 339.5,11C 388.668,4.49609 424.168,23.3294 446,67.5C 450.028,78.1407 452.195,89.1407 452.5,100.5 Z"/></g>
<g><path style="opacity:1" fill="#dfdedf" d="M 433.5,17.5 C 435.355,17.272 436.188,17.9387 436,19.5C 433.561,22.6118 430.561,24.9452 427,26.5C 423.56,24.8673 420.394,22.8673 417.5,20.5C 422.943,19.3498 428.277,18.3498 433.5,17.5 Z"/></g>
<g><path style="opacity:1" fill="#dddddd" d="M 445.5,31.5 C 446.497,31.4701 447.164,31.9701 447.5,33C 445.717,39.0212 443.55,44.8545 441,50.5C 439.495,46.6498 437.995,42.8165 436.5,39C 439.571,36.4816 442.571,33.9816 445.5,31.5 Z"/></g>
<g><path style="opacity:0.863" fill="#b2b0b1" d="M 296.5,32.5 C 293.833,35.8333 290.833,38.8333 287.5,41.5C 289.5,37.5 292.5,34.5 296.5,32.5 Z"/></g>
<g><path style="opacity:0.612" fill="#a8a6a7" d="M 50.5,98.5 C 50.5,99.5 50.5,100.5 50.5,101.5C 46.9581,101.813 43.6248,101.479 40.5,100.5C 44.1785,100.94 47.5118,100.273 50.5,98.5 Z"/></g>
<g><path style="opacity:0.612" fill="#aaa9a9" d="M 182.5,99.5 C 175.03,100.831 167.196,101.498 159,101.5C 150.993,101.5 143.159,101.166 135.5,100.5C 151.244,100.817 166.911,100.484 182.5,99.5 Z"/></g>
<g><path style="opacity:0.612" fill="#abaaaa" d="M 264.5,92.5 C 264.5,95.5 264.5,98.5 264.5,101.5C 252.655,101.828 240.988,101.495 229.5,100.5C 240.833,100.5 252.167,100.5 263.5,100.5C 263.194,97.6146 263.527,94.9479 264.5,92.5 Z"/></g>
<g><path style="opacity:0.612" fill="#abaaaa" d="M 504.5,99.5 C 496.193,100.831 487.527,101.498 478.5,101.5C 469.66,101.5 460.993,101.166 452.5,100.5C 469.91,100.819 487.244,100.485 504.5,99.5 Z"/></g>
<g><path style="opacity:0.674" fill="#bbbaba" d="M 915.5,98.5 C 915.5,99.5 915.5,100.5 915.5,101.5C 865.156,102.162 815.156,101.495 765.5,99.5C 815.645,101.164 865.645,100.83 915.5,98.5 Z"/></g>
<g><path style="opacity:0.675" fill="#bebdbd" d="M 1013.5,98.5 C 1037.27,100.475 1061.27,101.141 1085.5,100.5C 1061.67,101.498 1037.67,101.831 1013.5,101.5C 1013.5,100.5 1013.5,99.5 1013.5,98.5 Z"/></g>
<g><path style="opacity:0.753" fill="#b5b3b4" d="M 135.5,107.5 C 143.159,106.834 150.993,106.5 159,106.5C 167.196,106.502 175.03,107.169 182.5,108.5C 166.911,107.516 151.244,107.183 135.5,107.5 Z"/></g>
<g><path style="opacity:0.753" fill="#b5b3b4" d="M 736.5,107.5 C 665.762,107.17 595.096,107.503 524.5,108.5C 559.494,107.167 594.827,106.5 630.5,106.5C 666.002,106.5 701.335,106.833 736.5,107.5 Z"/></g>
<g><path style="opacity:0.807" fill="#c5c5c5" d="M 915.5,109.5 C 865.645,107.17 815.645,106.836 765.5,108.5C 815.156,106.505 865.156,105.838 915.5,106.5C 915.5,107.5 915.5,108.5 915.5,109.5 Z"/></g>
<g><path style="opacity:0.808" fill="#c8c8c8" d="M 1085.5,107.5 C 1061.27,106.859 1037.27,107.525 1013.5,109.5C 1013.5,108.5 1013.5,107.5 1013.5,106.5C 1037.67,106.169 1061.67,106.502 1085.5,107.5 Z"/></g>
<g><path style="opacity:0.758" fill="#bab9b9" d="M 1179.5,106.5 C 1179.5,106.833 1179.5,107.167 1179.5,107.5C 1163.42,107.183 1147.42,107.516 1131.5,108.5C 1147.13,106.515 1163.13,105.849 1179.5,106.5 Z"/></g>
<g><path style="opacity:0.824" fill="#6f4b4d" d="M 301.5,156.5 C 301.5,156.167 301.5,155.833 301.5,155.5C 340.833,155.5 380.167,155.5 419.5,155.5C 419.5,162.5 419.5,169.5 419.5,176.5C 419.5,176.833 419.5,177.167 419.5,177.5C 419.167,177.5 418.833,177.5 418.5,177.5C 418.5,170.5 418.5,163.5 418.5,156.5C 379.5,156.5 340.5,156.5 301.5,156.5 Z"/></g>
<g><path style="opacity:0.986" fill="#eb2029" d="M 112.5,192.5 C 108.988,191.945 105.988,192.612 103.5,194.5C 102.167,194.5 100.833,194.5 99.5,194.5C 96.3019,193.964 93.6353,194.631 91.5,196.5C 90.5093,190.021 90.176,183.354 90.5,176.5C 68.8333,176.5 47.1667,176.5 25.5,176.5C 25.167,198.177 25.5003,219.844 26.5,241.5C 47.4541,242.488 68.4541,242.822 89.5,242.5C 90.2902,234.805 90.6236,227.138 90.5,219.5C 98.5517,220.91 106.552,222.577 114.5,224.5C 115.77,232.527 115.77,240.527 114.5,248.5C 111.673,252.756 108.34,256.756 104.5,260.5C 73.5027,261.825 42.5027,261.825 11.5,260.5C 10.8333,260.5 10.1667,260.5 9.5,260.5C 7.16667,257.5 4.5,254.833 1.5,252.5C 1.03718,249.67 0.370512,247.003 -0.5,244.5C -0.5,221.167 -0.5,197.833 -0.5,174.5C 0.413536,169.62 2.41354,165.12 5.5,161C 9.23155,158.867 13.2316,157.534 17.5,157C 44.5,156.333 71.5,156.333 98.5,157C 108.23,157.732 113.73,162.898 115,172.5C 115.5,179.158 115.666,185.825 115.5,192.5C 114.5,192.5 113.5,192.5 112.5,192.5 Z"/></g>
<g><path style="opacity:0.971" fill="#eb2029" d="M 241.5,194.5 C 242.204,191.759 242.537,188.259 242.5,184C 242.49,179.771 241.823,175.938 240.5,172.5C 240.219,167.435 240.552,162.435 241.5,157.5C 249.807,156.502 258.14,156.169 266.5,156.5C 266.667,186.169 266.5,215.835 266,245.5C 265.812,250.939 263.646,255.272 259.5,258.5C 258.127,258.343 256.793,258.51 255.5,259C 253.111,259.739 251.111,260.905 249.5,262.5C 215.167,262.5 180.833,262.5 146.5,262.5C 146.5,255.833 146.5,249.167 146.5,242.5C 178.518,243.159 210.184,242.493 241.5,240.5C 242.488,235.36 242.821,230.026 242.5,224.5C 216.167,224.5 189.833,224.5 163.5,224.5C 160.772,224.829 158.438,224.163 156.5,222.5C 153.333,219.459 150.666,216.126 148.5,212.5C 147.686,210.369 147.186,208.036 147,205.5C 146.5,189.17 146.333,172.837 146.5,156.5C 155.167,156.5 163.833,156.5 172.5,156.5C 172.5,173.167 172.5,189.833 172.5,206.5C 195.167,206.5 217.833,206.5 240.5,206.5C 240.183,202.298 240.517,198.298 241.5,194.5 Z"/></g>
<g><path style="opacity:1" fill="#e8bec0" d="M 301.5,155.5 C 301.5,155.833 301.5,156.167 301.5,156.5C 301.5,164.167 301.5,171.833 301.5,179.5C 300.833,179.5 300.167,179.5 299.5,179.5C 298.167,178.833 297.167,177.833 296.5,176.5C 298.017,176.511 299.184,177.177 300,178.5C 300.171,170.656 300.671,162.989 301.5,155.5 Z"/></g>
<g><path style="opacity:0.999" fill="#eb1f28" d="M 301.5,156.5 C 340.5,156.5 379.5,156.5 418.5,156.5C 418.5,163.5 418.5,170.5 418.5,177.5C 418.5,205.5 418.5,233.5 418.5,261.5C 410.5,261.5 402.5,261.5 394.5,261.5C 394.5,238.833 394.5,216.167 394.5,193.5C 394.5,187.833 394.5,182.167 394.5,176.5C 371.167,176.5 347.833,176.5 324.5,176.5C 324.5,182.5 324.5,188.5 324.5,194.5C 324.5,216.833 324.5,239.167 324.5,261.5C 316.5,261.5 308.5,261.5 300.5,261.5C 300.176,234.093 300.509,206.759 301.5,179.5C 301.5,171.833 301.5,164.167 301.5,156.5 Z"/></g>
<g><path style="opacity:1" fill="#c3c2c2" d="M 419.5,155.5 C 420.167,161.833 420.833,168.167 421.5,174.5C 421.167,175.5 420.5,176.167 419.5,176.5C 419.5,169.5 419.5,162.5 419.5,155.5 Z"/></g>
<g><path style="opacity:0.986" fill="#eb2029" d="M 571.5,254.5 C 569.114,255.373 567.114,256.873 565.5,259C 562.833,259.667 560.167,260.333 557.5,261C 523.835,261.5 490.168,261.667 456.5,261.5C 456.5,255.167 456.5,248.833 456.5,242.5C 487.851,243.159 518.851,242.492 549.5,240.5C 550.488,235.36 550.821,230.026 550.5,224.5C 524.167,224.5 497.833,224.5 471.5,224.5C 463.158,223.994 457.991,219.66 456,211.5C 455.5,193.17 455.333,174.836 455.5,156.5C 463.833,156.5 472.167,156.5 480.5,156.5C 480.5,173.167 480.5,189.833 480.5,206.5C 503.5,206.5 526.5,206.5 549.5,206.5C 549.5,189.833 549.5,173.167 549.5,156.5C 557.833,156.5 566.167,156.5 574.5,156.5C 574.667,186.835 574.5,217.168 574,247.5C 573.621,250.03 572.787,252.363 571.5,254.5 Z"/></g>
<g><path style="opacity:0.988" fill="#eb1f28" d="M 671.5,207.5 C 670.503,225.326 670.17,243.326 670.5,261.5C 662.5,261.5 654.5,261.5 646.5,261.5C 646.83,244.658 646.497,227.992 645.5,211.5C 645.5,199.833 645.5,188.167 645.5,176.5C 629.5,176.5 613.5,176.5 597.5,176.5C 597.5,169.833 597.5,163.167 597.5,156.5C 638.167,156.5 678.833,156.5 719.5,156.5C 719.5,163.167 719.5,169.833 719.5,176.5C 703.5,176.5 687.5,176.5 671.5,176.5C 671.5,186.833 671.5,197.167 671.5,207.5 Z"/></g>
<g><path style="opacity:0.974" fill="#eb2028" d="M 863.5,156.5 C 864.487,191.457 864.82,226.457 864.5,261.5C 856.5,261.5 848.5,261.5 840.5,261.5C 840.5,246.5 840.5,231.5 840.5,216.5C 815.328,216.169 790.328,216.502 765.5,217.5C 764.504,232.324 764.171,247.324 764.5,262.5C 755.833,262.5 747.167,262.5 738.5,262.5C 738.5,227.167 738.5,191.833 738.5,156.5C 747.167,156.5 755.833,156.5 764.5,156.5C 764.5,170.167 764.5,183.833 764.5,197.5C 789.5,197.5 814.5,197.5 839.5,197.5C 839.5,183.833 839.5,170.167 839.5,156.5C 847.5,156.5 855.5,156.5 863.5,156.5 Z"/></g>
<g><path style="opacity:0.979" fill="#eb2028" d="M 918.5,156.5 C 918.169,178.673 918.503,200.673 919.5,222.5C 919.34,224.199 919.506,225.866 920,227.5C 934.767,214.222 949.933,201.556 965.5,189.5C 969.285,187.097 972.952,184.43 976.5,181.5C 977.689,180.571 979.022,180.238 980.5,180.5C 980.297,178.61 980.963,177.11 982.5,176C 990.938,170.311 998.605,163.811 1005.5,156.5C 1010.17,156.5 1014.83,156.5 1019.5,156.5C 1020.49,191.457 1020.82,226.457 1020.5,261.5C 1013.17,261.5 1005.83,261.5 998.5,261.5C 998.375,238.123 998.541,214.79 999,191.5C 998.329,192.252 997.496,192.586 996.5,192.5C 990.913,196.971 984.913,200.971 978.5,204.5C 975.76,208.209 972.76,211.709 969.5,215C 969.728,215.399 970.062,215.565 970.5,215.5C 966.392,219.394 962.059,223.061 957.5,226.5C 953.691,226.975 951.025,228.975 949.5,232.5C 947.761,235.243 945.427,237.243 942.5,238.5C 937.574,240.425 933.908,243.758 931.5,248.5C 925.579,250.894 920.579,254.728 916.5,260C 909.924,261.377 903.257,261.877 896.5,261.5C 896.5,226.5 896.5,191.5 896.5,156.5C 903.833,156.5 911.167,156.5 918.5,156.5 Z"/></g>
<g><path style="opacity:0.991" fill="#eb222a" d="M 1178.5,261.5 C 1165.5,261.667 1152.5,261.5 1139.5,261C 1136.71,257.974 1133.38,255.807 1129.5,254.5C 1112.23,242.41 1095.06,230.077 1078,217.5C 1077.6,217.728 1077.43,218.062 1077.5,218.5C 1076.5,232.657 1076.17,246.99 1076.5,261.5C 1068.5,261.5 1060.5,261.5 1052.5,261.5C 1052.5,226.5 1052.5,191.5 1052.5,156.5C 1060.83,156.5 1069.17,156.5 1077.5,156.5C 1077.33,170.837 1077.5,185.171 1078,199.5C 1096.83,185.333 1115.67,171.167 1134.5,157C 1146.83,156.333 1159.17,156.333 1171.5,157C 1148.95,173.725 1126.28,190.225 1103.5,206.5C 1128.71,224.598 1153.71,242.932 1178.5,261.5 Z"/></g>
<g><path style="opacity:1" fill="#ef4e55" d="M 240.5,172.5 C 241.823,175.938 242.49,179.771 242.5,184C 242.537,188.259 242.204,191.759 241.5,194.5C 241.764,187.11 241.43,179.777 240.5,172.5 Z"/></g>
<g><path style="opacity:1" fill="#f9f9f9" d="M 393.5,193.5 C 393.5,193.833 393.5,194.167 393.5,194.5C 370.928,202.057 348.261,202.39 325.5,195.5C 325.5,195.167 325.5,194.833 325.5,194.5C 325.5,188.833 325.5,183.167 325.5,177.5C 348.167,177.5 370.833,177.5 393.5,177.5C 393.5,182.833 393.5,188.167 393.5,193.5 Z"/></g>
<g><path style="opacity:0.894" fill="#7a6768" d="M 394.5,193.5 C 394.167,193.5 393.833,193.5 393.5,193.5C 393.5,188.167 393.5,182.833 393.5,177.5C 370.833,177.5 348.167,177.5 325.5,177.5C 325.5,183.167 325.5,188.833 325.5,194.5C 325.167,194.5 324.833,194.5 324.5,194.5C 324.5,188.5 324.5,182.5 324.5,176.5C 347.833,176.5 371.167,176.5 394.5,176.5C 394.5,182.167 394.5,187.833 394.5,193.5 Z"/></g>
<g><path style="opacity:0.98" fill="#ed3f46" d="M 1005.5,156.5 C 998.605,163.811 990.938,170.311 982.5,176C 980.963,177.11 980.297,178.61 980.5,180.5C 979.022,180.238 977.689,180.571 976.5,181.5C 972.952,184.43 969.285,187.097 965.5,189.5C 976.575,179.448 987.908,169.615 999.5,160C 1001.4,158.579 1003.4,157.412 1005.5,156.5 Z"/></g>
<g><path style="opacity:0.665" fill="#f27176" d="M 112.5,192.5 C 109.655,193.344 106.655,194.01 103.5,194.5C 105.988,192.612 108.988,191.945 112.5,192.5 Z"/></g>
<g><path style="opacity:0.518" fill="#f26e73" d="M 99.5,194.5 C 96.997,195.371 94.3303,196.037 91.5,196.5C 93.6353,194.631 96.3019,193.964 99.5,194.5 Z"/></g>
<g><path style="opacity:0.686" fill="#ef5056" d="M 299.5,179.5 C 300.167,179.5 300.833,179.5 301.5,179.5C 300.509,206.759 300.176,234.093 300.5,261.5C 308.5,261.5 316.5,261.5 324.5,261.5C 324.5,239.167 324.5,216.833 324.5,194.5C 324.833,194.5 325.167,194.5 325.5,194.5C 325.5,194.833 325.5,195.167 325.5,195.5C 325.5,217.833 325.5,240.167 325.5,262.5C 316.833,262.5 308.167,262.5 299.5,262.5C 299.5,234.833 299.5,207.167 299.5,179.5 Z"/></g>
<g><path style="opacity:0.901" fill="#f0555b" d="M 918.5,156.5 C 920.018,178.378 920.351,200.378 919.5,222.5C 918.503,200.673 918.169,178.673 918.5,156.5 Z"/></g>
<g><path style="opacity:1" fill="#ee4549" d="M 996.5,192.5 C 988.453,200.881 979.786,208.548 970.5,215.5C 970.062,215.565 969.728,215.399 969.5,215C 972.76,211.709 975.76,208.209 978.5,204.5C 984.913,200.971 990.913,196.971 996.5,192.5 Z"/></g>
<g><path style="opacity:0.227" fill="#f0575c" d="M 863.5,156.5 C 865.493,191.484 866.16,226.818 865.5,262.5C 856.833,262.5 848.167,262.5 839.5,262.5C 839.5,247.5 839.5,232.5 839.5,217.5C 814.833,217.5 790.167,217.5 765.5,217.5C 790.328,216.502 815.328,216.169 840.5,216.5C 840.5,231.5 840.5,246.5 840.5,261.5C 848.5,261.5 856.5,261.5 864.5,261.5C 864.82,226.457 864.487,191.457 863.5,156.5 Z"/></g>
<g><path style="opacity:0.016" fill="#f0555b" d="M 148.5,212.5 C 150.666,216.126 153.333,219.459 156.5,222.5C 151.476,221.146 148.809,217.812 148.5,212.5 Z"/></g>
<g><path style="opacity:0.627" fill="#ef4f55" d="M 1019.5,156.5 C 1021.49,191.484 1022.16,226.818 1021.5,262.5C 1013.65,262.825 1005.98,262.492 998.5,261.5C 1005.83,261.5 1013.17,261.5 1020.5,261.5C 1020.82,226.457 1020.49,191.457 1019.5,156.5 Z"/></g>
<g><path style="opacity:0.153" fill="#ee4a51" d="M 671.5,207.5 C 671.5,225.833 671.5,244.167 671.5,262.5C 662.833,262.5 654.167,262.5 645.5,262.5C 645.5,245.5 645.5,228.5 645.5,211.5C 646.497,227.992 646.83,244.658 646.5,261.5C 654.5,261.5 662.5,261.5 670.5,261.5C 670.17,243.326 670.503,225.326 671.5,207.5 Z"/></g>
<g><path style="opacity:1" fill="#f37175" d="M 163.5,224.5 C 189.833,224.5 216.167,224.5 242.5,224.5C 242.821,230.026 242.488,235.36 241.5,240.5C 241.5,235.5 241.5,230.5 241.5,225.5C 215.328,225.831 189.328,225.498 163.5,224.5 Z"/></g>
<g><path style="opacity:0.854" fill="#f36e71" d="M 471.5,224.5 C 497.833,224.5 524.167,224.5 550.5,224.5C 550.821,230.026 550.488,235.36 549.5,240.5C 549.5,235.5 549.5,230.5 549.5,225.5C 523.328,225.831 497.328,225.498 471.5,224.5 Z"/></g>
<g><path style="opacity:0.596" fill="#ee4f55" d="M 418.5,177.5 C 418.833,177.5 419.167,177.5 419.5,177.5C 419.5,205.833 419.5,234.167 419.5,262.5C 410.833,262.5 402.167,262.5 393.5,262.5C 393.5,239.833 393.5,217.167 393.5,194.5C 393.5,194.167 393.5,193.833 393.5,193.5C 393.833,193.5 394.167,193.5 394.5,193.5C 394.5,216.167 394.5,238.833 394.5,261.5C 402.5,261.5 410.5,261.5 418.5,261.5C 418.5,233.5 418.5,205.5 418.5,177.5 Z"/></g>
<g><path style="opacity:0.102" fill="#f05f65" d="M 957.5,226.5 C 955.122,228.878 952.455,230.878 949.5,232.5C 951.025,228.975 953.691,226.975 957.5,226.5 Z"/></g>
<g><path style="opacity:1" fill="#ef5157" d="M 1077.5,218.5 C 1077.5,233.167 1077.5,247.833 1077.5,262.5C 1068.98,262.826 1060.65,262.493 1052.5,261.5C 1060.5,261.5 1068.5,261.5 1076.5,261.5C 1076.17,246.99 1076.5,232.657 1077.5,218.5 Z"/></g>
<g><path style="opacity:0.608" fill="#f0565c" d="M 942.5,238.5 C 939.442,242.525 935.775,245.858 931.5,248.5C 933.908,243.758 937.574,240.425 942.5,238.5 Z"/></g>
<g><path style="opacity:0.524" fill="#f1656b" d="M 1.5,252.5 C 4.5,254.833 7.16667,257.5 9.5,260.5C 5.83333,258.833 3.16667,256.167 1.5,252.5 Z"/></g>
<g><path style="opacity:0.488" fill="#f16065" d="M 114.5,248.5 C 113.69,254.64 110.357,258.64 104.5,260.5C 108.34,256.756 111.673,252.756 114.5,248.5 Z"/></g>
<g><path style="opacity:0.365" fill="#f05b60" d="M 931.5,248.5 C 925.753,253.554 919.753,258.387 913.5,263C 907.616,263.547 901.949,263.047 896.5,261.5C 903.257,261.877 909.924,261.377 916.5,260C 920.579,254.728 925.579,250.894 931.5,248.5 Z"/></g>
<g><path style="opacity:0.265" fill="#f26d72" d="M 259.5,258.5 C 256.61,260.733 253.277,262.066 249.5,262.5C 251.111,260.905 253.111,259.739 255.5,259C 256.793,258.51 258.127,258.343 259.5,258.5 Z"/></g>
<g><path style="opacity:0.993" fill="#ee444a" d="M 11.5,260.5 C 42.5027,261.825 73.5027,261.825 104.5,260.5C 103.391,261.29 102.058,261.79 100.5,262C 72.1667,262.667 43.8333,262.667 15.5,262C 13.9419,261.79 12.6085,261.29 11.5,260.5 Z"/></g>
<g><path style="opacity:0.994" fill="#ee464c" d="M 456.5,242.5 C 456.5,248.833 456.5,255.167 456.5,261.5C 490.168,261.667 523.835,261.5 557.5,261C 560.167,260.333 562.833,259.667 565.5,259C 567.114,256.873 569.114,255.373 571.5,254.5C 568.986,259.147 564.986,261.647 559.5,262C 524.835,262.5 490.168,262.667 455.5,262.5C 455.176,255.646 455.509,248.979 456.5,242.5 Z"/></g>
<g><path style="opacity:1" fill="#ef4f53" d="M 1129.5,254.5 C 1133.38,255.807 1136.71,257.974 1139.5,261C 1152.5,261.5 1165.5,261.667 1178.5,261.5C 1178.83,261.5 1179.17,261.5 1179.5,261.5C 1179.5,261.833 1179.5,262.167 1179.5,262.5C 1166.48,262.534 1153.48,262.701 1140.5,263C 1136.36,260.685 1132.7,257.852 1129.5,254.5 Z"/></g>
<g><path style="opacity:1" fill="#f0f0f0" d="M 444.5,294.5 C 465.701,295.512 472.534,305.845 465,325.5C 457.824,331.195 449.658,333.029 440.5,331C 427.807,326.107 423.974,317.274 429,304.5C 432.841,299.003 438.008,295.669 444.5,294.5 Z M 445.5,305.5 C 450.924,305.249 453.924,307.916 454.5,313.5C 454.26,318.009 452.093,321.009 448,322.5C 441.996,320.154 439.996,315.821 442,309.5C 442.69,307.65 443.856,306.316 445.5,305.5 Z"/></g>
<g><path style="opacity:1" fill="#f9f9f9" d="M 36.5,326.5 C 36.4142,327.496 36.7476,328.329 37.5,329C 32.1149,329.733 26.7815,329.567 21.5,328.5C 19.1829,324.854 16.5162,321.52 13.5,318.5C 12.5184,321.962 12.185,325.629 12.5,329.5C 8.16667,329.5 3.83333,329.5 -0.5,329.5C -0.5,318.5 -0.5,307.5 -0.5,296.5C 3.83333,296.5 8.16667,296.5 12.5,296.5C 11.795,307.688 14.1283,308.355 19.5,298.5C 21.1661,296.172 23.4995,295.172 26.5,295.5C 30.173,295.953 33.8396,296.453 37.5,297C 33.1475,301.019 29.1475,305.352 25.5,310C 29.5533,315.282 33.2199,320.782 36.5,326.5 Z"/></g>
<g><path style="opacity:1" fill="#fafafa" d="M 168.5,296.5 C 168.5,307.5 168.5,318.5 168.5,329.5C 164.167,329.5 159.833,329.5 155.5,329.5C 155.5,328.167 155.5,326.833 155.5,325.5C 154.244,315.839 154.244,306.172 155.5,296.5C 159.833,296.5 164.167,296.5 168.5,296.5 Z"/></g>
<g><path style="opacity:0.235" fill="#9c9a9b" d="M 168.5,296.5 C 169.495,307.654 169.828,318.988 169.5,330.5C 164.5,331.833 159.5,331.833 154.5,330.5C 154.216,328.585 154.549,326.919 155.5,325.5C 155.5,326.833 155.5,328.167 155.5,329.5C 159.833,329.5 164.167,329.5 168.5,329.5C 168.5,318.5 168.5,307.5 168.5,296.5 Z"/></g>
<g><path style="opacity:1" fill="#fdfdfd" d="M 299.5,296.5 C 299.5,300.5 299.5,304.5 299.5,308.5C 303.167,308.5 306.833,308.5 310.5,308.5C 310.5,304.5 310.5,300.5 310.5,296.5C 314.5,296.5 318.5,296.5 322.5,296.5C 322.5,307.5 322.5,318.5 322.5,329.5C 318.5,329.5 314.5,329.5 310.5,329.5C 310.5,325.5 310.5,321.5 310.5,317.5C 306.833,317.5 303.167,317.5 299.5,317.5C 299.5,321.5 299.5,325.5 299.5,329.5C 295.167,329.5 290.833,329.5 286.5,329.5C 286.5,328.5 286.5,327.5 286.5,326.5C 285.167,316.5 285.167,306.5 286.5,296.5C 290.833,296.5 295.167,296.5 299.5,296.5 Z"/></g>
<g><path style="opacity:1" fill="#fefefe" d="M 573.5,296.5 C 584.833,296.5 596.167,296.5 607.5,296.5C 607.5,299.5 607.5,302.5 607.5,305.5C 603.958,305.187 600.625,305.521 597.5,306.5C 596.508,313.982 596.175,321.648 596.5,329.5C 592.5,329.5 588.5,329.5 584.5,329.5C 584.825,321.648 584.492,313.982 583.5,306.5C 580.375,305.521 577.042,305.187 573.5,305.5C 573.5,302.5 573.5,299.5 573.5,296.5 Z"/></g>
<g><path style="opacity:0.937" fill="#d5d4d4" d="M 717.5,297.5 C 717.5,297.167 717.5,296.833 717.5,296.5C 727.833,296.5 738.167,296.5 748.5,296.5C 748.5,299.5 748.5,302.5 748.5,305.5C 742.833,305.5 737.167,305.5 731.5,305.5C 731.167,305.5 730.833,305.5 730.5,305.5C 735.975,304.511 741.642,304.178 747.5,304.5C 747.5,302.167 747.5,299.833 747.5,297.5C 737.5,297.5 727.5,297.5 717.5,297.5 Z"/></g>
<g><path style="opacity:1" fill="#f3f3f3" d="M 868.5,296.5 C 873.762,296.195 878.928,296.529 884,297.5C 888.265,308.127 892.431,318.794 896.5,329.5C 891.833,330.833 887.167,330.833 882.5,329.5C 882.167,328.833 881.833,328.167 881.5,327.5C 877.893,326.511 874.226,326.177 870.5,326.5C 870.67,327.822 870.337,328.989 869.5,330C 864.798,330.828 860.131,330.662 855.5,329.5C 860.036,318.555 864.369,307.555 868.5,296.5 Z M 875.5,310.5 C 876.67,312.65 877.67,314.984 878.5,317.5C 876.833,318.833 875.167,318.833 873.5,317.5C 874.946,315.382 875.613,313.049 875.5,310.5 Z"/></g>
<g><path style="opacity:1" fill="#fdfdfd" d="M 1025.5,329.5 C 1021.17,329.5 1016.83,329.5 1012.5,329.5C 1012.5,321.5 1012.5,313.5 1012.5,305.5C 1008.83,305.5 1005.17,305.5 1001.5,305.5C 1001.5,302.833 1001.5,300.167 1001.5,297.5C 1012.99,296.505 1024.65,296.172 1036.5,296.5C 1036.5,299.833 1036.5,303.167 1036.5,306.5C 1032.83,306.5 1029.17,306.5 1025.5,306.5C 1025.5,314.167 1025.5,321.833 1025.5,329.5 Z"/></g>
<g><path style="opacity:1" fill="#f6f6f6" d="M 1179.5,303.5 C 1179.5,306.833 1179.5,310.167 1179.5,313.5C 1173.55,320.092 1166.22,322.426 1157.5,320.5C 1156.52,323.287 1156.19,326.287 1156.5,329.5C 1152.5,329.5 1148.5,329.5 1144.5,329.5C 1144.5,318.5 1144.5,307.5 1144.5,296.5C 1155.54,294.571 1166.21,295.737 1176.5,300C 1177.16,301.518 1178.16,302.685 1179.5,303.5 Z M 1157.5,305.5 C 1159.92,305.292 1162.25,305.626 1164.5,306.5C 1165.43,307.689 1165.76,309.022 1165.5,310.5C 1162.83,310.5 1160.17,310.5 1157.5,310.5C 1157.5,308.833 1157.5,307.167 1157.5,305.5 Z"/></g>
<g><path style="opacity:1" fill="#fefffe" d="M 717.5,297.5 C 727.5,297.5 737.5,297.5 747.5,297.5C 747.5,299.833 747.5,302.167 747.5,304.5C 741.642,304.178 735.975,304.511 730.5,305.5C 730.5,306.833 730.5,308.167 730.5,309.5C 735.5,309.5 740.5,309.5 745.5,309.5C 745.5,312.167 745.5,314.833 745.5,317.5C 740.5,317.5 735.5,317.5 730.5,317.5C 730.5,318.833 730.5,320.167 730.5,321.5C 736.31,322.49 742.31,322.823 748.5,322.5C 748.5,324.833 748.5,327.167 748.5,329.5C 738.167,329.5 727.833,329.5 717.5,329.5C 717.5,318.833 717.5,308.167 717.5,297.5 Z"/></g>
<g><path style="opacity:0.612" fill="#b2b1b1" d="M 1144.5,296.5 C 1144.5,307.5 1144.5,318.5 1144.5,329.5C 1148.5,329.5 1152.5,329.5 1156.5,329.5C 1156.19,326.287 1156.52,323.287 1157.5,320.5C 1157.5,323.833 1157.5,327.167 1157.5,330.5C 1152.83,330.5 1148.17,330.5 1143.5,330.5C 1143.17,318.988 1143.51,307.654 1144.5,296.5 Z"/></g>
<g><path style="opacity:0.933" fill="#b0aeaf" d="M 12.5,296.5 C 13.3138,298.631 13.8138,300.964 14,303.5C 15.7038,301.627 17.5372,299.96 19.5,298.5C 14.1283,308.355 11.795,307.688 12.5,296.5 Z"/></g>
<g><path style="opacity:0.863" fill="#bfbebf" d="M 573.5,296.5 C 573.5,299.5 573.5,302.5 573.5,305.5C 577.042,305.187 580.375,305.521 583.5,306.5C 579.833,306.5 576.167,306.5 572.5,306.5C 572.187,302.958 572.521,299.625 573.5,296.5 Z"/></g>
<g><path style="opacity:0.906" fill="#bebdbe" d="M 607.5,296.5 C 608.479,299.625 608.813,302.958 608.5,306.5C 604.833,306.5 601.167,306.5 597.5,306.5C 600.625,305.521 603.958,305.187 607.5,305.5C 607.5,302.5 607.5,299.5 607.5,296.5 Z"/></g>
<g><path style="opacity:0.812" fill="#bbb9ba" d="M 583.5,306.5 C 584.492,313.982 584.825,321.648 584.5,329.5C 588.5,329.5 592.5,329.5 596.5,329.5C 596.175,321.648 596.508,313.982 597.5,306.5C 597.5,314.5 597.5,322.5 597.5,330.5C 592.833,331.833 588.167,331.833 583.5,330.5C 583.5,322.5 583.5,314.5 583.5,306.5 Z"/></g>
<g><path style="opacity:0.937" fill="#bebcbd" d="M 299.5,296.5 C 300.482,299.962 300.815,303.629 300.5,307.5C 303.5,307.5 306.5,307.5 309.5,307.5C 309.185,303.629 309.518,299.962 310.5,296.5C 310.5,300.5 310.5,304.5 310.5,308.5C 306.833,308.5 303.167,308.5 299.5,308.5C 299.5,304.5 299.5,300.5 299.5,296.5 Z"/></g>
<g><path style="opacity:0.439" fill="#9d9c9c" d="M 730.5,305.5 C 730.833,305.5 731.167,305.5 731.5,305.5C 731.5,306.5 731.5,307.5 731.5,308.5C 736.5,308.5 741.5,308.5 746.5,308.5C 746.5,311.833 746.5,315.167 746.5,318.5C 741.5,318.5 736.5,318.5 731.5,318.5C 731.5,319.5 731.5,320.5 731.5,321.5C 731.167,321.5 730.833,321.5 730.5,321.5C 730.5,320.167 730.5,318.833 730.5,317.5C 735.5,317.5 740.5,317.5 745.5,317.5C 745.5,314.833 745.5,312.167 745.5,309.5C 740.5,309.5 735.5,309.5 730.5,309.5C 730.5,308.167 730.5,306.833 730.5,305.5 Z"/></g>
<g><path style="opacity:0.434" fill="#acaaab" d="M 1001.5,297.5 C 1001.5,300.167 1001.5,302.833 1001.5,305.5C 1005.17,305.5 1008.83,305.5 1012.5,305.5C 1012.5,313.5 1012.5,321.5 1012.5,329.5C 1016.83,329.5 1021.17,329.5 1025.5,329.5C 1021.03,330.486 1016.36,330.819 1011.5,330.5C 1011.5,322.5 1011.5,314.5 1011.5,306.5C 1007.83,306.5 1004.17,306.5 1000.5,306.5C 1000.19,303.287 1000.52,300.287 1001.5,297.5 Z"/></g>
<g><path style="opacity:0.753" fill="#b6b5b5" d="M 322.5,296.5 C 323.495,307.654 323.828,318.988 323.5,330.5C 318.833,330.5 314.167,330.5 309.5,330.5C 309.5,326.5 309.5,322.5 309.5,318.5C 306.5,318.5 303.5,318.5 300.5,318.5C 300.5,322.5 300.5,326.5 300.5,330.5C 295.5,330.5 290.5,330.5 285.5,330.5C 285.232,328.901 285.566,327.568 286.5,326.5C 286.5,327.5 286.5,328.5 286.5,329.5C 290.833,329.5 295.167,329.5 299.5,329.5C 299.5,325.5 299.5,321.5 299.5,317.5C 303.167,317.5 306.833,317.5 310.5,317.5C 310.5,321.5 310.5,325.5 310.5,329.5C 314.5,329.5 318.5,329.5 322.5,329.5C 322.5,318.5 322.5,307.5 322.5,296.5 Z"/></g>
<g><path style="opacity:1" fill="#b7b6b6" d="M 13.5,318.5 C 13.5,322.5 13.5,326.5 13.5,330.5C 8.83333,330.5 4.16667,330.5 -0.5,330.5C -0.5,330.167 -0.5,329.833 -0.5,329.5C 3.83333,329.5 8.16667,329.5 12.5,329.5C 12.185,325.629 12.5184,321.962 13.5,318.5 Z"/></g>
<g><path style="opacity:1" fill="#bebdbd" d="M 36.5,326.5 C 37.8366,327.315 38.8366,328.482 39.5,330C 33.8333,330.667 28.1667,330.667 22.5,330C 21.944,329.617 21.6107,329.117 21.5,328.5C 26.7815,329.567 32.1149,329.733 37.5,329C 36.7476,328.329 36.4142,327.496 36.5,326.5 Z"/></g>
<g><path style="opacity:1" fill="#b8b6b7" d="M 717.5,296.5 C 717.5,296.833 717.5,297.167 717.5,297.5C 717.5,308.167 717.5,318.833 717.5,329.5C 727.833,329.5 738.167,329.5 748.5,329.5C 748.5,327.167 748.5,324.833 748.5,322.5C 742.31,322.823 736.31,322.49 730.5,321.5C 730.833,321.5 731.167,321.5 731.5,321.5C 737.5,321.5 743.5,321.5 749.5,321.5C 749.5,324.5 749.5,327.5 749.5,330.5C 738.5,330.5 727.5,330.5 716.5,330.5C 716.172,318.988 716.505,307.654 717.5,296.5 Z"/></g>
</svg>
