<svg width="163" height="154" viewBox="0 0 163 154" fill="none" xmlns="http://www.w3.org/2000/svg">
<path fill-rule="evenodd" clip-rule="evenodd" d="M92.9309 58.336L98.3119 67.6562C101.23 66.9011 104.569 68.1334 106.109 70.8103L111.262 79.7341C112.864 82.5102 112.29 85.9313 110.104 88.0806L115.485 97.4008L112.503 99.1012L107.133 89.7995C105.959 90.1277 104.719 90.1633 103.509 89.8391C101.732 89.3629 100.246 88.222 99.3248 86.627L94.175 77.7041C93.2539 76.1102 93.0089 74.2528 93.4853 72.4746C93.8092 71.2659 94.4599 70.2098 95.3302 69.3567L89.9599 60.055L92.9309 58.336ZM102.338 84.8845L97.1885 75.9615C96.7317 75.1722 96.6114 74.2532 96.8473 73.3742C96.9215 73.0972 97.0806 72.867 97.2144 72.623L97.795 73.627C98.2695 74.4487 99.3189 74.7299 100.141 74.2555C100.962 73.781 101.243 72.7316 100.769 71.9099L100.19 70.9062C100.468 70.9111 100.747 70.8885 101.024 70.9627C101.904 71.1986 102.64 71.7623 103.094 72.551L108.247 81.4748C108.868 82.5495 108.781 83.8013 108.219 84.8151L107.638 83.8085C107.163 82.9868 106.114 82.7056 105.292 83.18C104.47 83.6545 104.189 84.7039 104.664 85.5256L105.229 86.505C104.075 86.4651 102.938 85.9199 102.338 84.8845Z" fill="#EFEFEF"/>
<path fill-rule="evenodd" clip-rule="evenodd" d="M70.5178 55.336L65.1368 64.6562C62.2187 63.9011 58.88 65.1334 57.3393 67.8103L52.1863 76.7341C50.5845 79.5102 51.1587 82.9313 53.3449 85.0806L47.9639 94.4008L50.9454 96.1012L56.3158 86.7995C57.49 87.1277 58.7301 87.1633 59.9399 86.8391C61.7169 86.3629 63.2031 85.222 64.1239 83.627L69.2737 74.7041C70.1949 73.1102 70.4399 71.2528 69.9634 69.4746C69.6395 68.2659 68.9889 67.2098 68.1185 66.3567L73.4889 57.055L70.5178 55.336ZM61.1105 81.8845L66.2603 72.9615C66.717 72.1722 66.8373 71.2532 66.6015 70.3742C66.5273 70.0972 66.3682 69.867 66.2343 69.623L65.6537 70.627C65.1792 71.4487 64.1298 71.7299 63.3082 71.2555C62.4865 70.781 62.2053 69.7316 62.6797 68.9099L63.2592 67.9062C62.9806 67.9111 62.7017 67.8885 62.4248 67.9627C61.5446 68.1986 60.8087 68.7623 60.3544 69.551L55.2013 78.4748C54.5807 79.5495 54.6674 80.8013 55.2299 81.8151L55.811 80.8085C56.2855 79.9868 57.3349 79.7056 58.1566 80.18C58.9783 80.6545 59.2595 81.7039 58.7851 82.5256L58.2196 83.505C59.3734 83.4651 60.5108 82.9199 61.1105 81.8845Z" fill="#EFEFEF"/>
<path fill-rule="evenodd" clip-rule="evenodd" d="M63.0418 99.75L39.0001 90.75L14.9585 99.75V128.25L39.0001 139.25L63.0418 128.25V99.75ZM54.8964 100.972L39.0001 95.0211L23.1038 100.972L39.0001 107.584L54.8964 100.972ZM37.0001 111.084L18.9585 103.58V125.681L37.0001 133.936L37.0001 111.084ZM41.0001 111.084L41.0001 133.936L59.0418 125.681V103.58L41.0001 111.084Z" fill="#EFEFEF"/>
<path fill-rule="evenodd" clip-rule="evenodd" d="M148.042 100.75L124 91.75L99.9585 100.75V129.25L124 140.25L148.042 129.25V100.75ZM139.896 101.972L124 96.0211L108.104 101.972L124 108.584L139.896 101.972ZM122 112.084L103.958 104.58V126.681L122 134.936L122 112.084ZM126 112.084L126 134.936L144.042 126.681V104.58L126 112.084Z" fill="#EFEFEF"/>
<path fill-rule="evenodd" clip-rule="evenodd" d="M105.334 24.7501L81.2919 15.7501L57.2502 24.7501V53.2501L81.2919 64.2501L105.334 53.2501V24.7501ZM97.1882 25.972L81.2919 20.0212L65.3956 25.972L81.2919 32.584L97.1882 25.972ZM79.2919 36.0843L61.2502 28.58V50.6815L79.2919 58.9362L79.2919 36.0843ZM83.2919 36.0843L83.2919 58.9362L101.334 50.6815V28.58L83.2919 36.0843Z" fill="#4AB4F5"/>
<g filter="url(#filter0_f_618_2591)">
<path fill-rule="evenodd" clip-rule="evenodd" d="M105.042 24.7501L81.0001 15.7501L56.9585 24.7501V53.2501L81.0001 64.2501L105.042 53.2501V24.7501ZM96.8964 25.972L81.0001 20.0212L65.1038 25.972L81.0001 32.584L96.8964 25.972ZM79.0001 36.0843L60.9585 28.58V50.6815L79.0001 58.9362L79.0001 36.0843ZM83.0001 36.0843L83.0001 58.9362L101.042 50.6815V28.58L83.0001 36.0843Z" fill="#4AB4F5"/>
</g>
<defs>
<filter id="filter0_f_618_2591" x="52.9585" y="11.7501" width="56.0833" height="56.5" filterUnits="userSpaceOnUse" color-interpolation-filters="sRGB">
<feFlood flood-opacity="0" result="BackgroundImageFix"/>
<feBlend mode="normal" in="SourceGraphic" in2="BackgroundImageFix" result="shape"/>
<feGaussianBlur stdDeviation="2" result="effect1_foregroundBlur_618_2591"/>
</filter>
</defs>
</svg>
