<svg width="141" height="142" viewBox="0 0 141 142" fill="none" xmlns="http://www.w3.org/2000/svg">
<path fill-rule="evenodd" clip-rule="evenodd" d="M25.324 47.3526C21.6073 50.1695 18.0226 52.3861 14.8113 53.9072C11.8288 55.3199 9.3418 56.0498 7.47304 56.2075C5.58376 56.3669 4.81149 55.9206 4.51244 55.6216C4.2134 55.3225 3.76715 54.5503 3.92656 52.661C4.08423 50.7922 4.81409 48.3052 6.22684 45.3227C7.75169 42.1036 9.97543 38.5092 12.8021 34.7826C14.6659 37.0183 16.7142 39.2643 18.9259 41.476C21.0403 43.5904 23.186 45.5554 25.324 47.3526ZM28.0441 45.2019C25.8126 43.3553 23.5564 41.3068 21.3258 39.0762C18.9963 36.7467 16.8654 34.3893 14.9557 32.0613C16.831 29.7862 18.9167 27.4844 21.1919 25.2092C23.467 22.9341 25.7687 20.8484 28.0438 18.9732C30.3719 20.8829 32.7292 23.0137 35.0587 25.3432C37.2893 27.5739 39.3379 29.83 41.1845 32.0616C39.3031 34.346 37.2095 36.6575 34.9248 38.9422C32.6401 41.2269 30.3286 43.3206 28.0441 45.2019ZM28.0389 49.5485C16.7307 58.2929 6.13416 62.0431 2.11256 58.0215C-1.91367 53.9952 1.84976 43.3788 10.6158 32.056C1.94545 20.7983 -1.75918 10.2696 2.24649 6.26394C6.25217 2.25827 16.7809 5.9629 28.0385 14.6333C39.3614 5.86717 49.9778 2.10371 54.0041 6.12996C58.0257 10.1516 54.2755 20.7482 45.5311 32.0563C54.3711 43.4292 58.1801 54.1134 54.138 58.1554C50.0959 62.1975 39.4117 58.3885 28.0389 49.5485ZM43.3418 34.7763C46.2192 38.5529 48.4797 42.1972 50.0237 45.4567C51.4365 48.4392 52.1663 50.9262 52.324 52.795C52.4834 54.6843 52.0372 55.4565 51.7381 55.7556C51.4391 56.0546 50.6668 56.5009 48.7775 56.3415C46.9088 56.1838 44.4217 55.4539 41.4393 54.0412C38.1798 52.4972 34.5355 50.2367 30.7589 47.3592C32.9524 45.5241 35.155 43.5117 37.3247 41.3421C39.4943 39.1724 41.5066 36.9699 43.3418 34.7763ZM43.3352 29.3415C46.1521 25.6247 48.3687 22.04 49.8898 18.8287C51.3025 15.8462 52.0324 13.3592 52.1901 11.4904C52.3495 9.60115 51.9032 8.82888 51.6042 8.52984C51.3051 8.23079 50.5329 7.78454 48.6436 7.94395C46.7748 8.10163 44.2878 8.83149 41.3053 10.2442C38.0862 11.7691 34.4917 13.9929 30.7652 16.8196C33.0009 18.6833 35.2468 20.7316 37.4586 22.9434C39.573 25.0578 41.538 27.2034 43.3352 29.3415ZM25.3171 16.8262C21.6506 14.06 18.1159 11.8801 14.9452 10.3782C11.9628 8.96548 9.47573 8.23561 7.60697 8.07793C5.71768 7.91853 4.94542 8.36478 4.64637 8.66382C4.34733 8.96287 3.90108 9.73513 4.06048 11.6244C4.21816 13.4932 4.94803 15.9802 6.36077 18.9627C7.86266 22.1333 10.0426 25.6681 12.8088 29.3345C14.6348 27.1544 16.6357 24.9656 18.792 22.8094C20.9482 20.6531 23.137 18.6522 25.3171 16.8262Z" fill="#EFEFEF"/>
<path d="M31.4394 32.4697C31.4394 34.1098 30.1098 35.4394 28.4697 35.4394C26.8296 35.4394 25.5 34.1098 25.5 32.4697C25.5 30.8296 26.8296 29.5 28.4697 29.5C30.1098 29.5 31.4394 30.8296 31.4394 32.4697Z" fill="#4AB4F5"/>
<g filter="url(#filter0_f_618_2588)">
<path d="M31.4394 32.4697C31.4394 34.1098 30.1098 35.4394 28.4697 35.4394C26.8296 35.4394 25.5 34.1098 25.5 32.4697C25.5 30.8296 26.8296 29.5 28.4697 29.5C30.1098 29.5 31.4394 30.8296 31.4394 32.4697Z" fill="#4AB4F5"/>
</g>
<path fill-rule="evenodd" clip-rule="evenodd" d="M43.8891 58.803C44.8263 58.803 45.586 58.0432 45.586 57.106C45.586 56.1688 44.8263 55.4091 43.8891 55.4091C42.9518 55.4091 42.1921 56.1688 42.1921 57.106C42.1921 58.0432 42.9518 58.803 43.8891 58.803ZM43.8891 60.5C45.7635 60.5 47.283 58.9805 47.283 57.106C47.283 55.2316 45.7635 53.7121 43.8891 53.7121C42.0146 53.7121 40.4951 55.2316 40.4951 57.106C40.4951 58.9805 42.0146 60.5 43.8891 60.5Z" fill="#4AB4F5"/>
<g filter="url(#filter1_f_618_2588)">
<path fill-rule="evenodd" clip-rule="evenodd" d="M43.8891 58.803C44.8263 58.803 45.586 58.0432 45.586 57.106C45.586 56.1688 44.8263 55.4091 43.8891 55.4091C42.9518 55.4091 42.1921 56.1688 42.1921 57.106C42.1921 58.0432 42.9518 58.803 43.8891 58.803ZM43.8891 60.5C45.7635 60.5 47.283 58.9805 47.283 57.106C47.283 55.2316 45.7635 53.7121 43.8891 53.7121C42.0146 53.7121 40.4951 55.2316 40.4951 57.106C40.4951 58.9805 42.0146 60.5 43.8891 60.5Z" fill="#4AB4F5"/>
</g>
<path fill-rule="evenodd" clip-rule="evenodd" d="M13.3436 9.59091C14.2809 9.59091 15.0406 8.83115 15.0406 7.89394C15.0406 6.95673 14.2809 6.19697 13.3436 6.19697C12.4064 6.19697 11.6467 6.95673 11.6467 7.89394C11.6467 8.83115 12.4064 9.59091 13.3436 9.59091ZM13.3436 11.2879C15.2181 11.2879 16.7376 9.76836 16.7376 7.89394C16.7376 6.01952 15.2181 4.5 13.3436 4.5C11.4692 4.5 9.94971 6.01952 9.94971 7.89394C9.94971 9.76836 11.4692 11.2879 13.3436 11.2879Z" fill="#4AB4F5"/>
<g filter="url(#filter2_f_618_2588)">
<path fill-rule="evenodd" clip-rule="evenodd" d="M13.3436 9.59091C14.2809 9.59091 15.0406 8.83115 15.0406 7.89394C15.0406 6.95673 14.2809 6.19697 13.3436 6.19697C12.4064 6.19697 11.6467 6.95673 11.6467 7.89394C11.6467 8.83115 12.4064 9.59091 13.3436 9.59091ZM13.3436 11.2879C15.2181 11.2879 16.7376 9.76836 16.7376 7.89394C16.7376 6.01952 15.2181 4.5 13.3436 4.5C11.4692 4.5 9.94971 6.01952 9.94971 7.89394C9.94971 9.76836 11.4692 11.2879 13.3436 11.2879Z" fill="#4AB4F5"/>
</g>
<path fill-rule="evenodd" clip-rule="evenodd" d="M136.5 77.5H74.5C73.9477 77.5 73.5 77.9477 73.5 78.5V89.5C73.5 90.0523 73.9477 90.5 74.5 90.5H136.5C137.052 90.5 137.5 90.0523 137.5 89.5V78.5C137.5 77.9477 137.052 77.5 136.5 77.5ZM74.5 74.5C72.2909 74.5 70.5 76.2909 70.5 78.5V89.5C70.5 91.7091 72.2909 93.5 74.5 93.5H136.5C138.709 93.5 140.5 91.7091 140.5 89.5V78.5C140.5 76.2909 138.709 74.5 136.5 74.5H74.5Z" fill="#EFEFEF"/>
<path fill-rule="evenodd" clip-rule="evenodd" d="M78 84C78 82.8954 78.8954 82 80 82H101.5C102.605 82 103.5 82.8954 103.5 84C103.5 85.1046 102.605 86 101.5 86H80C78.8954 86 78 85.1046 78 84Z" fill="#EFEFEF"/>
<path fill-rule="evenodd" clip-rule="evenodd" d="M119.5 84.5C119.5 83.3954 120.395 82.5 121.5 82.5H123.5C124.605 82.5 125.5 83.3954 125.5 84.5C125.5 85.6046 124.605 86.5 123.5 86.5H121.5C120.395 86.5 119.5 85.6046 119.5 84.5Z" fill="#4AB4F5"/>
<g filter="url(#filter3_f_618_2588)">
<path fill-rule="evenodd" clip-rule="evenodd" d="M119.5 84.5C119.5 83.3954 120.395 82.5 121.5 82.5H123.5C124.605 82.5 125.5 83.3954 125.5 84.5C125.5 85.6046 124.605 86.5 123.5 86.5H121.5C120.395 86.5 119.5 85.6046 119.5 84.5Z" fill="#4AB4F5"/>
</g>
<path fill-rule="evenodd" clip-rule="evenodd" d="M127.5 84.5C127.5 83.3954 128.395 82.5 129.5 82.5H131.5C132.605 82.5 133.5 83.3954 133.5 84.5C133.5 85.6046 132.605 86.5 131.5 86.5H129.5C128.395 86.5 127.5 85.6046 127.5 84.5Z" fill="#4AB4F5"/>
<g filter="url(#filter4_f_618_2588)">
<path fill-rule="evenodd" clip-rule="evenodd" d="M127.5 84.5C127.5 83.3954 128.395 82.5 129.5 82.5H131.5C132.605 82.5 133.5 83.3954 133.5 84.5C133.5 85.6046 132.605 86.5 131.5 86.5H129.5C128.395 86.5 127.5 85.6046 127.5 84.5Z" fill="#4AB4F5"/>
</g>
<path fill-rule="evenodd" clip-rule="evenodd" d="M136.5 93.5H74.5C73.9477 93.5 73.5 93.9477 73.5 94.5V105.5C73.5 106.052 73.9477 106.5 74.5 106.5H136.5C137.052 106.5 137.5 106.052 137.5 105.5V94.5C137.5 93.9477 137.052 93.5 136.5 93.5ZM74.5 90.5C72.2909 90.5 70.5 92.2909 70.5 94.5V105.5C70.5 107.709 72.2909 109.5 74.5 109.5H136.5C138.709 109.5 140.5 107.709 140.5 105.5V94.5C140.5 92.2909 138.709 90.5 136.5 90.5H74.5Z" fill="#EFEFEF"/>
<path fill-rule="evenodd" clip-rule="evenodd" d="M78 100C78 98.8954 78.8954 98 80 98H101.5C102.605 98 103.5 98.8954 103.5 100C103.5 101.105 102.605 102 101.5 102H80C78.8954 102 78 101.105 78 100Z" fill="#EFEFEF"/>
<path fill-rule="evenodd" clip-rule="evenodd" d="M119.5 100.5C119.5 99.3954 120.395 98.5 121.5 98.5H123.5C124.605 98.5 125.5 99.3954 125.5 100.5C125.5 101.605 124.605 102.5 123.5 102.5H121.5C120.395 102.5 119.5 101.605 119.5 100.5Z" fill="#4AB4F5"/>
<g filter="url(#filter5_f_618_2588)">
<path fill-rule="evenodd" clip-rule="evenodd" d="M119.5 100.5C119.5 99.3954 120.395 98.5 121.5 98.5H123.5C124.605 98.5 125.5 99.3954 125.5 100.5C125.5 101.605 124.605 102.5 123.5 102.5H121.5C120.395 102.5 119.5 101.605 119.5 100.5Z" fill="#4AB4F5"/>
</g>
<path fill-rule="evenodd" clip-rule="evenodd" d="M127.5 100.5C127.5 99.3954 128.395 98.5 129.5 98.5H131.5C132.605 98.5 133.5 99.3954 133.5 100.5C133.5 101.605 132.605 102.5 131.5 102.5H129.5C128.395 102.5 127.5 101.605 127.5 100.5Z" fill="#4AB4F5"/>
<g filter="url(#filter6_f_618_2588)">
<path fill-rule="evenodd" clip-rule="evenodd" d="M127.5 100.5C127.5 99.3954 128.395 98.5 129.5 98.5H131.5C132.605 98.5 133.5 99.3954 133.5 100.5C133.5 101.605 132.605 102.5 131.5 102.5H129.5C128.395 102.5 127.5 101.605 127.5 100.5Z" fill="#4AB4F5"/>
</g>
<path fill-rule="evenodd" clip-rule="evenodd" d="M136.5 109.5H74.5C73.9477 109.5 73.5 109.948 73.5 110.5V121.5C73.5 122.052 73.9477 122.5 74.5 122.5H136.5C137.052 122.5 137.5 122.052 137.5 121.5V110.5C137.5 109.948 137.052 109.5 136.5 109.5ZM74.5 106.5C72.2909 106.5 70.5 108.291 70.5 110.5V121.5C70.5 123.709 72.2909 125.5 74.5 125.5H136.5C138.709 125.5 140.5 123.709 140.5 121.5V110.5C140.5 108.291 138.709 106.5 136.5 106.5H74.5Z" fill="#EFEFEF"/>
<path fill-rule="evenodd" clip-rule="evenodd" d="M78 116C78 114.895 78.8954 114 80 114H101.5C102.605 114 103.5 114.895 103.5 116C103.5 117.105 102.605 118 101.5 118H80C78.8954 118 78 117.105 78 116Z" fill="#EFEFEF"/>
<path fill-rule="evenodd" clip-rule="evenodd" d="M119.5 116.5C119.5 115.395 120.395 114.5 121.5 114.5H123.5C124.605 114.5 125.5 115.395 125.5 116.5C125.5 117.605 124.605 118.5 123.5 118.5H121.5C120.395 118.5 119.5 117.605 119.5 116.5Z" fill="#4AB4F5"/>
<g filter="url(#filter7_f_618_2588)">
<path fill-rule="evenodd" clip-rule="evenodd" d="M119.5 116.5C119.5 115.395 120.395 114.5 121.5 114.5H123.5C124.605 114.5 125.5 115.395 125.5 116.5C125.5 117.605 124.605 118.5 123.5 118.5H121.5C120.395 118.5 119.5 117.605 119.5 116.5Z" fill="#4AB4F5"/>
</g>
<path fill-rule="evenodd" clip-rule="evenodd" d="M127.5 116.5C127.5 115.395 128.395 114.5 129.5 114.5H131.5C132.605 114.5 133.5 115.395 133.5 116.5C133.5 117.605 132.605 118.5 131.5 118.5H129.5C128.395 118.5 127.5 117.605 127.5 116.5Z" fill="#4AB4F5"/>
<g filter="url(#filter8_f_618_2588)">
<path fill-rule="evenodd" clip-rule="evenodd" d="M127.5 116.5C127.5 115.395 128.395 114.5 129.5 114.5H131.5C132.605 114.5 133.5 115.395 133.5 116.5C133.5 117.605 132.605 118.5 131.5 118.5H129.5C128.395 118.5 127.5 117.605 127.5 116.5Z" fill="#4AB4F5"/>
</g>
<path fill-rule="evenodd" clip-rule="evenodd" d="M136.5 125.5H74.5C73.9477 125.5 73.5 125.948 73.5 126.5V137.5C73.5 138.052 73.9477 138.5 74.5 138.5H136.5C137.052 138.5 137.5 138.052 137.5 137.5V126.5C137.5 125.948 137.052 125.5 136.5 125.5ZM74.5 122.5C72.2909 122.5 70.5 124.291 70.5 126.5V137.5C70.5 139.709 72.2909 141.5 74.5 141.5H136.5C138.709 141.5 140.5 139.709 140.5 137.5V126.5C140.5 124.291 138.709 122.5 136.5 122.5H74.5Z" fill="#EFEFEF"/>
<path fill-rule="evenodd" clip-rule="evenodd" d="M78 132C78 130.895 78.8954 130 80 130H101.5C102.605 130 103.5 130.895 103.5 132C103.5 133.105 102.605 134 101.5 134H80C78.8954 134 78 133.105 78 132Z" fill="#EFEFEF"/>
<path fill-rule="evenodd" clip-rule="evenodd" d="M119.5 132.5C119.5 131.395 120.395 130.5 121.5 130.5H123.5C124.605 130.5 125.5 131.395 125.5 132.5C125.5 133.605 124.605 134.5 123.5 134.5H121.5C120.395 134.5 119.5 133.605 119.5 132.5Z" fill="#4AB4F5"/>
<g filter="url(#filter9_f_618_2588)">
<path fill-rule="evenodd" clip-rule="evenodd" d="M119.5 132.5C119.5 131.395 120.395 130.5 121.5 130.5H123.5C124.605 130.5 125.5 131.395 125.5 132.5C125.5 133.605 124.605 134.5 123.5 134.5H121.5C120.395 134.5 119.5 133.605 119.5 132.5Z" fill="#4AB4F5"/>
</g>
<path fill-rule="evenodd" clip-rule="evenodd" d="M127.5 132.5C127.5 131.395 128.395 130.5 129.5 130.5H131.5C132.605 130.5 133.5 131.395 133.5 132.5C133.5 133.605 132.605 134.5 131.5 134.5H129.5C128.395 134.5 127.5 133.605 127.5 132.5Z" fill="#4AB4F5"/>
<g filter="url(#filter10_f_618_2588)">
<path fill-rule="evenodd" clip-rule="evenodd" d="M127.5 132.5C127.5 131.395 128.395 130.5 129.5 130.5H131.5C132.605 130.5 133.5 131.395 133.5 132.5C133.5 133.605 132.605 134.5 131.5 134.5H129.5C128.395 134.5 127.5 133.605 127.5 132.5Z" fill="#4AB4F5"/>
</g>
<path fill-rule="evenodd" clip-rule="evenodd" d="M10.5417 71.7509C10.5904 70.4415 11.9401 69.62 13.1756 70.0564C14.0085 70.3506 14.5648 71.1527 14.5341 72.0355C14.5114 72.6875 14.5 73.3424 14.5 74C14.5 97.2233 28.7636 117.115 49.0081 125.393C49.5641 125.62 49.9934 126.086 50.1773 126.657C50.6862 128.24 49.2031 129.789 47.6623 129.165C25.8701 120.332 10.5 98.9609 10.5 74C10.5 73.247 10.514 72.4972 10.5417 71.7509ZM123.716 57.2603C125.267 57.8607 126.9 56.4704 126.367 54.8957C118.408 31.406 96.1783 14.5 70 14.5C68.9291 14.5 68.1918 15.5807 68.5093 16.6035C68.6239 16.9726 68.7315 17.3271 68.8218 17.628C68.9777 18.1475 69.4576 18.5 70 18.5C94.3586 18.5 115.052 34.1923 122.523 56.0192C122.717 56.5875 123.156 57.0434 123.716 57.2603Z" fill="#EFEFEF"/>
<circle cx="125" cy="58" r="4.5" fill="#EFEFEF"/>
<circle cx="125" cy="58" r="2.5" fill="#4AB4F5"/>
<g filter="url(#filter11_f_618_2588)">
<circle cx="125" cy="58" r="2.5" fill="#4AB4F5"/>
</g>
<circle cx="51" cy="128" r="4.5" fill="#EFEFEF"/>
<circle cx="51" cy="128" r="2.5" fill="#4AB4F5"/>
<g filter="url(#filter12_f_618_2588)">
<circle cx="51" cy="128" r="2.5" fill="#4AB4F5"/>
</g>
<defs>
<filter id="filter0_f_618_2588" x="21.5" y="25.5" width="13.9395" height="13.9394" filterUnits="userSpaceOnUse" color-interpolation-filters="sRGB">
<feFlood flood-opacity="0" result="BackgroundImageFix"/>
<feBlend mode="normal" in="SourceGraphic" in2="BackgroundImageFix" result="shape"/>
<feGaussianBlur stdDeviation="2" result="effect1_foregroundBlur_618_2588"/>
</filter>
<filter id="filter1_f_618_2588" x="36.4951" y="49.7121" width="14.7878" height="14.7879" filterUnits="userSpaceOnUse" color-interpolation-filters="sRGB">
<feFlood flood-opacity="0" result="BackgroundImageFix"/>
<feBlend mode="normal" in="SourceGraphic" in2="BackgroundImageFix" result="shape"/>
<feGaussianBlur stdDeviation="2" result="effect1_foregroundBlur_618_2588"/>
</filter>
<filter id="filter2_f_618_2588" x="5.94971" y="0.5" width="14.7878" height="14.7879" filterUnits="userSpaceOnUse" color-interpolation-filters="sRGB">
<feFlood flood-opacity="0" result="BackgroundImageFix"/>
<feBlend mode="normal" in="SourceGraphic" in2="BackgroundImageFix" result="shape"/>
<feGaussianBlur stdDeviation="2" result="effect1_foregroundBlur_618_2588"/>
</filter>
<filter id="filter3_f_618_2588" x="115.5" y="78.5" width="14" height="12" filterUnits="userSpaceOnUse" color-interpolation-filters="sRGB">
<feFlood flood-opacity="0" result="BackgroundImageFix"/>
<feBlend mode="normal" in="SourceGraphic" in2="BackgroundImageFix" result="shape"/>
<feGaussianBlur stdDeviation="2" result="effect1_foregroundBlur_618_2588"/>
</filter>
<filter id="filter4_f_618_2588" x="123.5" y="78.5" width="14" height="12" filterUnits="userSpaceOnUse" color-interpolation-filters="sRGB">
<feFlood flood-opacity="0" result="BackgroundImageFix"/>
<feBlend mode="normal" in="SourceGraphic" in2="BackgroundImageFix" result="shape"/>
<feGaussianBlur stdDeviation="2" result="effect1_foregroundBlur_618_2588"/>
</filter>
<filter id="filter5_f_618_2588" x="115.5" y="94.5" width="14" height="12" filterUnits="userSpaceOnUse" color-interpolation-filters="sRGB">
<feFlood flood-opacity="0" result="BackgroundImageFix"/>
<feBlend mode="normal" in="SourceGraphic" in2="BackgroundImageFix" result="shape"/>
<feGaussianBlur stdDeviation="2" result="effect1_foregroundBlur_618_2588"/>
</filter>
<filter id="filter6_f_618_2588" x="123.5" y="94.5" width="14" height="12" filterUnits="userSpaceOnUse" color-interpolation-filters="sRGB">
<feFlood flood-opacity="0" result="BackgroundImageFix"/>
<feBlend mode="normal" in="SourceGraphic" in2="BackgroundImageFix" result="shape"/>
<feGaussianBlur stdDeviation="2" result="effect1_foregroundBlur_618_2588"/>
</filter>
<filter id="filter7_f_618_2588" x="115.5" y="110.5" width="14" height="12" filterUnits="userSpaceOnUse" color-interpolation-filters="sRGB">
<feFlood flood-opacity="0" result="BackgroundImageFix"/>
<feBlend mode="normal" in="SourceGraphic" in2="BackgroundImageFix" result="shape"/>
<feGaussianBlur stdDeviation="2" result="effect1_foregroundBlur_618_2588"/>
</filter>
<filter id="filter8_f_618_2588" x="123.5" y="110.5" width="14" height="12" filterUnits="userSpaceOnUse" color-interpolation-filters="sRGB">
<feFlood flood-opacity="0" result="BackgroundImageFix"/>
<feBlend mode="normal" in="SourceGraphic" in2="BackgroundImageFix" result="shape"/>
<feGaussianBlur stdDeviation="2" result="effect1_foregroundBlur_618_2588"/>
</filter>
<filter id="filter9_f_618_2588" x="115.5" y="126.5" width="14" height="12" filterUnits="userSpaceOnUse" color-interpolation-filters="sRGB">
<feFlood flood-opacity="0" result="BackgroundImageFix"/>
<feBlend mode="normal" in="SourceGraphic" in2="BackgroundImageFix" result="shape"/>
<feGaussianBlur stdDeviation="2" result="effect1_foregroundBlur_618_2588"/>
</filter>
<filter id="filter10_f_618_2588" x="123.5" y="126.5" width="14" height="12" filterUnits="userSpaceOnUse" color-interpolation-filters="sRGB">
<feFlood flood-opacity="0" result="BackgroundImageFix"/>
<feBlend mode="normal" in="SourceGraphic" in2="BackgroundImageFix" result="shape"/>
<feGaussianBlur stdDeviation="2" result="effect1_foregroundBlur_618_2588"/>
</filter>
<filter id="filter11_f_618_2588" x="118.5" y="51.5" width="13" height="13" filterUnits="userSpaceOnUse" color-interpolation-filters="sRGB">
<feFlood flood-opacity="0" result="BackgroundImageFix"/>
<feBlend mode="normal" in="SourceGraphic" in2="BackgroundImageFix" result="shape"/>
<feGaussianBlur stdDeviation="2" result="effect1_foregroundBlur_618_2588"/>
</filter>
<filter id="filter12_f_618_2588" x="44.5" y="121.5" width="13" height="13" filterUnits="userSpaceOnUse" color-interpolation-filters="sRGB">
<feFlood flood-opacity="0" result="BackgroundImageFix"/>
<feBlend mode="normal" in="SourceGraphic" in2="BackgroundImageFix" result="shape"/>
<feGaussianBlur stdDeviation="2" result="effect1_foregroundBlur_618_2588"/>
</filter>
</defs>
</svg>
