<svg width="707" height="129" viewBox="0 0 707 129" fill="none" xmlns="http://www.w3.org/2000/svg">
<path d="M27.0001 24.9087H76.4256L141.396 126.909H707" stroke="#EFEFEF" stroke-width="4"/>
<g clip-path="url(#clip0_818_2916)">
<path opacity="0.9" d="M666.506 101.909L641.079 126.909L656.398 126.909L681.809 101.909L666.506 101.909Z" fill="#EFEFEF"/>
<path d="M691.775 101.909L666.348 126.909L707.079 126.909L707.079 101.909L691.775 101.909Z" fill="#EFEFEF"/>
<path opacity="0.25" d="M565.411 101.909L540 126.909L555.303 126.909L580.715 101.909L565.411 101.909Z" fill="#EFEFEF"/>
<path opacity="0.5" d="M590.681 101.909L565.27 126.909L580.573 126.909L606 101.909L590.681 101.909Z" fill="#EFEFEF"/>
<path opacity="0.7" d="M615.951 101.909L590.539 126.909L605.843 126.909L631.27 101.909L615.951 101.909Z" fill="#EFEFEF"/>
<path opacity="0.8" d="M641.22 101.909L615.809 126.909L631.112 126.909L656.54 101.909L641.22 101.909Z" fill="#EFEFEF"/>
</g>
<path opacity="0.15" d="M707 61.9087V128.909H230L354.829 61.9087H707Z" fill="#4AB4F5"/>
<path opacity="0.5" d="M39.1423 33.2235C37.1941 36.5979 34.1775 39.2274 30.5688 40.6968C26.9601 42.1663 22.9647 42.392 19.2134 41.3385C15.4622 40.2849 12.1686 38.012 9.85265 34.8785C7.53671 31.745 6.3303 27.9295 6.42385 24.0342C6.51741 20.1389 7.9056 16.3857 10.3693 13.367C12.833 10.3483 16.2319 8.23615 20.0294 7.36387C23.827 6.49159 27.8069 6.90889 31.3409 8.54991C34.8749 10.1909 37.7617 12.9622 39.5457 16.4262L37.0427 17.7153C35.5451 14.8074 33.1218 12.481 30.1551 11.1035C27.1885 9.72593 23.8476 9.37563 20.6597 10.1079C17.4719 10.8401 14.6187 12.6132 12.5505 15.1472C10.4824 17.6812 9.31703 20.8319 9.23849 24.1018C9.15996 27.3717 10.1727 30.5747 12.1168 33.2051C14.0609 35.8354 16.8257 37.7435 19.9747 38.6279C23.1238 39.5123 26.4777 39.3228 29.507 38.0893C32.5363 36.8557 35.0686 34.6484 36.704 31.8158L39.1423 33.2235Z" fill="#EFEFEF"/>
<ellipse cx="24.5001" cy="24.9087" rx="4.5" ry="4" fill="#EFEFEF"/>
<defs>
<clipPath id="clip0_818_2916">
<rect width="25" height="167" fill="white" transform="translate(707 101.909) rotate(90)"/>
</clipPath>
</defs>
</svg>
