<svg width="313" height="63" viewBox="0 0 313 63" fill="none" xmlns="http://www.w3.org/2000/svg">
<path d="M8.57739 11.7854H37.8997V61.0344H312.5" stroke="#EFEFEF" stroke-width="2"/>
<g clip-path="url(#clip0_1027_4034)">
<path opacity="0.9" d="M292.84 48.9634L280.495 61.0342L287.933 61.0342L300.27 48.9634L292.84 48.9634Z" fill="#EFEFEF"/>
<path d="M305.108 48.9634L292.763 61.0342L312.538 61.0342L312.538 48.9634L305.108 48.9634Z" fill="#EFEFEF"/>
<path opacity="0.25" d="M243.759 48.9634L231.421 61.0342L238.851 61.0342L251.188 48.9634L243.759 48.9634Z" fill="#EFEFEF"/>
<path opacity="0.5" d="M256.027 48.9634L243.69 61.0342L251.12 61.0342L263.465 48.9634L256.027 48.9634Z" fill="#EFEFEF"/>
<path opacity="0.7" d="M268.295 48.9634L255.958 61.0342L263.388 61.0342L275.733 48.9634L268.295 48.9634Z" fill="#EFEFEF"/>
<path opacity="0.8" d="M280.564 48.9634L268.227 61.0342L275.657 61.0342L288.001 48.9634L280.564 48.9634Z" fill="#EFEFEF"/>
</g>
<path opacity="0.15" d="M312.5 29.6501V62H80.9166L141.521 29.6501H312.5Z" fill="#4AB4F5"/>
<path d="M15.9289 15.8C14.9831 17.4293 13.5186 18.6989 11.7665 19.4084C10.0145 20.1179 8.07475 20.2269 6.2535 19.7182C4.43225 19.2095 2.83323 18.112 1.70884 16.5991C0.584453 15.0861 -0.00125926 13.2439 0.0441622 11.3631C0.0895834 9.48231 0.763551 7.67013 1.95968 6.21262C3.1558 4.7551 4.80596 3.73527 6.64966 3.31411C8.49337 2.89294 10.4256 3.09443 12.1414 3.88676C13.8571 4.6791 15.2587 6.01715 16.1248 7.68971L14.9096 8.31211C14.1825 6.90808 13.006 5.78484 11.5657 5.11972C10.1254 4.45459 8.50337 4.28545 6.95567 4.639C5.40797 4.99255 4.02274 5.84865 3.01865 7.07216C2.01456 8.29567 1.4488 9.8169 1.41067 11.3957C1.37254 12.9746 1.86422 14.5211 2.80809 15.7911C3.75196 17.0611 5.09426 17.9824 6.62311 18.4094C8.15196 18.8365 9.78027 18.7449 11.251 18.1494C12.7218 17.5538 13.9512 16.488 14.7452 15.1203L15.9289 15.8Z" fill="#EFEFEF"/>
<ellipse cx="8.82012" cy="11.7853" rx="2.18475" ry="1.93133" fill="#EFEFEF"/>
<defs>
<clipPath id="clip0_1027_4034">
<rect width="12.0708" height="81.0784" fill="white" transform="translate(312.5 48.9634) rotate(90)"/>
</clipPath>
</defs>
</svg>
