<svg width="96" height="96" viewBox="0 0 96 96" fill="none" xmlns="http://www.w3.org/2000/svg">
<g filter="url(#filter0_f_504_929)">
<rect x="8.5" y="8.5" width="79" height="79" stroke="#4AB4F5"/>
<path d="M35.5 40.5H25.5V70.5H35.5V40.5Z" stroke="#4AB4F5" stroke-width="4" stroke-miterlimit="10" stroke-linecap="round" stroke-linejoin="round"/>
<path d="M59.25 40.5C57 40.5 54.75 41.25 53 42.5V40.5H43V70.5H48H53V54.25C53 52.25 54.75 50.5 56.75 50.5C58.75 50.5 60.5 52.25 60.5 54.25V70.5H70.5V51.75C70.5 45.5 65.5 40.5 59.25 40.5Z" stroke="#4AB4F5" stroke-width="4" stroke-miterlimit="10" stroke-linecap="round" stroke-linejoin="round"/>
<path d="M30.5 33C33.2614 33 35.5 30.7614 35.5 28C35.5 25.2386 33.2614 23 30.5 23C27.7386 23 25.5 25.2386 25.5 28C25.5 30.7614 27.7386 33 30.5 33Z" stroke="#4AB4F5" stroke-width="4" stroke-miterlimit="10" stroke-linecap="round" stroke-linejoin="round"/>
<rect x="11" y="11" width="74" height="74" rx="10" stroke="#4AB4F5" stroke-width="6"/>
</g>
<path d="M35.5 40.5H25.5V70.5H35.5V40.5Z" stroke="#EFEFEF" stroke-width="4" stroke-miterlimit="10" stroke-linecap="round" stroke-linejoin="round"/>
<path d="M59.25 40.5C57 40.5 54.75 41.25 53 42.5V40.5H43V70.5H48H53V54.25C53 52.25 54.75 50.5 56.75 50.5C58.75 50.5 60.5 52.25 60.5 54.25V70.5H70.5V51.75C70.5 45.5 65.5 40.5 59.25 40.5Z" stroke="#EFEFEF" stroke-width="4" stroke-miterlimit="10" stroke-linecap="round" stroke-linejoin="round"/>
<path d="M30.5 33C33.2614 33 35.5 30.7614 35.5 28C35.5 25.2386 33.2614 23 30.5 23C27.7386 23 25.5 25.2386 25.5 28C25.5 30.7614 27.7386 33 30.5 33Z" stroke="#EFEFEF" stroke-width="4" stroke-miterlimit="10" stroke-linecap="round" stroke-linejoin="round"/>
<rect x="11" y="11" width="74" height="74" rx="10" stroke="#EFEFEF" stroke-width="6"/>
<defs>
<filter id="filter0_f_504_929" x="0" y="0" width="96" height="96" filterUnits="userSpaceOnUse" color-interpolation-filters="sRGB">
<feFlood flood-opacity="0" result="BackgroundImageFix"/>
<feBlend mode="normal" in="SourceGraphic" in2="BackgroundImageFix" result="shape"/>
<feGaussianBlur stdDeviation="4" result="effect1_foregroundBlur_504_929"/>
</filter>
</defs>
</svg>
