<svg width="374" height="93" viewBox="0 0 374 93" fill="none" xmlns="http://www.w3.org/2000/svg">
<g filter="url(#filter0_f_472_2685)">
<path d="M17 15.5H357V45.5V60.5L341.4 75.5H17V15.5Z" fill="#4AB4F5"/>
<rect x="6" y="6.5" width="2" height="2" fill="#4AB4F5"/>
<rect x="6" y="15.5" width="2" height="60" fill="#4AB4F5"/>
<rect x="366" y="6.5" width="2" height="2" fill="#4AB4F5"/>
<path d="M361 82.5H12V87H140.5L142.5 85H361V82.5Z" fill="#4AB4F5"/>
</g>
<path d="M17 15.5H357V45.5V60.5L341.4 75.5H17V15.5Z" fill="#EFEFEF"/>
<rect x="6" y="6.5" width="2" height="2" fill="#EFEFEF"/>
<rect x="6" y="15.5" width="2" height="60" fill="#EFEFEF"/>
<rect x="366" y="6.5" width="2" height="2" fill="#EFEFEF"/>
<path d="M361 82.5H12V87H140.5L142.5 85H361V82.5Z" fill="#EFEFEF"/>
<g filter="url(#filter1_f_472_2685)">
<path d="M48.25 46.5L52 42.75V41.5H37V46.5H48.25ZM33.25 56.5L32 55.25V37.75L33.25 36.5H57V45.25L50.75 51.5H37V56.5H33.25ZM78.25 44L79.5 42.75V41.5H64.5V44H78.25ZM65.75 56.5L59.5 50.25V37.75L60.75 36.5H84.5V45.25L80.75 49H65.75L68.25 51.5H82L84.5 54V56.5H65.75ZM110.711 56.5H91.9609L86.9609 51.5V41.5L91.9609 36.5H111.961V40.25L110.711 41.5H94.4609L91.9609 44H106.961V47.75L105.711 49H91.9609L94.4609 51.5H111.961V55.25L110.711 56.5ZM120.77 56.5L114.52 50.25V36.5H139.52V40.25L138.27 41.5H119.52V47.75L123.27 51.5H139.52V55.25L138.27 56.5H120.77ZM152.02 56.5V41.5H142.02V36.5H167.02V41.5H157.02V56.5H152.02ZM185.77 46.5L189.52 42.75V41.5H174.52V46.5H185.77ZM170.77 56.5L169.52 55.25V37.75L170.77 36.5H194.52V45.25L188.27 51.5H174.52V56.5H170.77ZM198.27 56.5L197.02 55.25V51.5H214.52L217.02 49H197.02V36.5H202.02V44H217.02V36.5H222.02V51.5L217.02 56.5H198.27ZM224.52 56.5V39L227.02 36.5H229.52V50.25L243.27 36.5H248.27L249.52 37.75V56.5H245.77L244.52 55.25V42.75L230.77 56.5H224.52ZM234.52 36.5L232.02 34V31.5H234.52V32.75L235.77 34H238.27L239.52 32.75V31.5H242.02V34L239.52 36.5H234.52ZM258.27 56.5L252.02 50.25V36.5H277.02V40.25L275.77 41.5H257.02V47.75L260.77 51.5H277.02V55.25L275.77 56.5H258.27ZM299.52 46.5V41.5H285.77L284.52 42.75V45.25L285.77 46.5H299.52ZM279.52 56.5V55.25L283.27 51.5H282.02L279.52 49V40.25L283.27 36.5H304.52V56.5H299.52V51.5H290.77L287.02 55.25V56.5H279.52Z" fill="#4AB4F5"/>
<path d="M329.858 33.3578L342 45.5L329.858 57.6422V33.3578Z" fill="#4AB4F5"/>
</g>
<g filter="url(#filter2_i_472_2685)">
<path d="M48.25 46.5L52 42.75V41.5H37V46.5H48.25ZM33.25 56.5L32 55.25V37.75L33.25 36.5H57V45.25L50.75 51.5H37V56.5H33.25ZM78.25 44L79.5 42.75V41.5H64.5V44H78.25ZM65.75 56.5L59.5 50.25V37.75L60.75 36.5H84.5V45.25L80.75 49H65.75L68.25 51.5H82L84.5 54V56.5H65.75ZM110.711 56.5H91.9609L86.9609 51.5V41.5L91.9609 36.5H111.961V40.25L110.711 41.5H94.4609L91.9609 44H106.961V47.75L105.711 49H91.9609L94.4609 51.5H111.961V55.25L110.711 56.5ZM120.77 56.5L114.52 50.25V36.5H139.52V40.25L138.27 41.5H119.52V47.75L123.27 51.5H139.52V55.25L138.27 56.5H120.77ZM152.02 56.5V41.5H142.02V36.5H167.02V41.5H157.02V56.5H152.02ZM185.77 46.5L189.52 42.75V41.5H174.52V46.5H185.77ZM170.77 56.5L169.52 55.25V37.75L170.77 36.5H194.52V45.25L188.27 51.5H174.52V56.5H170.77ZM198.27 56.5L197.02 55.25V51.5H214.52L217.02 49H197.02V36.5H202.02V44H217.02V36.5H222.02V51.5L217.02 56.5H198.27ZM224.52 56.5V39L227.02 36.5H229.52V50.25L243.27 36.5H248.27L249.52 37.75V56.5H245.77L244.52 55.25V42.75L230.77 56.5H224.52ZM234.52 36.5L232.02 34V31.5H234.52V32.75L235.77 34H238.27L239.52 32.75V31.5H242.02V34L239.52 36.5H234.52ZM258.27 56.5L252.02 50.25V36.5H277.02V40.25L275.77 41.5H257.02V47.75L260.77 51.5H277.02V55.25L275.77 56.5H258.27ZM299.52 46.5V41.5H285.77L284.52 42.75V45.25L285.77 46.5H299.52ZM279.52 56.5V55.25L283.27 51.5H282.02L279.52 49V40.25L283.27 36.5H304.52V56.5H299.52V51.5H290.77L287.02 55.25V56.5H279.52Z" fill="#4AB4F5"/>
</g>
<g filter="url(#filter3_i_472_2685)">
<path d="M329.858 33.3578L342 45.5L329.858 57.6422V33.3578Z" fill="#4AB4F5"/>
</g>
<defs>
<filter id="filter0_f_472_2685" x="0" y="0.5" width="374" height="92.5" filterUnits="userSpaceOnUse" color-interpolation-filters="sRGB">
<feFlood flood-opacity="0" result="BackgroundImageFix"/>
<feBlend mode="normal" in="SourceGraphic" in2="BackgroundImageFix" result="shape"/>
<feGaussianBlur stdDeviation="3" result="effect1_foregroundBlur_472_2685"/>
</filter>
<filter id="filter1_f_472_2685" x="13" y="11.5" width="348" height="68" filterUnits="userSpaceOnUse" color-interpolation-filters="sRGB">
<feFlood flood-opacity="0" result="BackgroundImageFix"/>
<feBlend mode="normal" in="SourceGraphic" in2="BackgroundImageFix" result="shape"/>
<feGaussianBlur stdDeviation="2" result="effect1_foregroundBlur_472_2685"/>
</filter>
<filter id="filter2_i_472_2685" x="32" y="31.5" width="272.52" height="26" filterUnits="userSpaceOnUse" color-interpolation-filters="sRGB">
<feFlood flood-opacity="0" result="BackgroundImageFix"/>
<feBlend mode="normal" in="SourceGraphic" in2="BackgroundImageFix" result="shape"/>
<feColorMatrix in="SourceAlpha" type="matrix" values="0 0 0 0 0 0 0 0 0 0 0 0 0 0 0 0 0 0 127 0" result="hardAlpha"/>
<feOffset dy="1"/>
<feGaussianBlur stdDeviation="0.5"/>
<feComposite in2="hardAlpha" operator="arithmetic" k2="-1" k3="1"/>
<feColorMatrix type="matrix" values="0 0 0 0 0 0 0 0 0 0 0 0 0 0 0 0 0 0 0.25 0"/>
<feBlend mode="normal" in2="shape" result="effect1_innerShadow_472_2685"/>
</filter>
<filter id="filter3_i_472_2685" x="329.858" y="33.3578" width="12.1421" height="25.2844" filterUnits="userSpaceOnUse" color-interpolation-filters="sRGB">
<feFlood flood-opacity="0" result="BackgroundImageFix"/>
<feBlend mode="normal" in="SourceGraphic" in2="BackgroundImageFix" result="shape"/>
<feColorMatrix in="SourceAlpha" type="matrix" values="0 0 0 0 0 0 0 0 0 0 0 0 0 0 0 0 0 0 127 0" result="hardAlpha"/>
<feOffset dy="1"/>
<feGaussianBlur stdDeviation="0.5"/>
<feComposite in2="hardAlpha" operator="arithmetic" k2="-1" k3="1"/>
<feColorMatrix type="matrix" values="0 0 0 0 0 0 0 0 0 0 0 0 0 0 0 0 0 0 0.25 0"/>
<feBlend mode="normal" in2="shape" result="effect1_innerShadow_472_2685"/>
</filter>
</defs>
</svg>
