<svg width="362" height="81" viewBox="0 0 362 81" fill="none" xmlns="http://www.w3.org/2000/svg">
<path d="M11 9H351V39V54L335.4 69H11V9Z" fill="#EFEFEF"/>
<rect width="2" height="2" fill="#EFEFEF"/>
<rect y="9" width="2" height="60" fill="#EFEFEF"/>
<rect x="360" width="2" height="2" fill="#EFEFEF"/>
<path d="M355 76H6V80.5H134.5L136.5 78.5H355V76Z" fill="#EFEFEF"/>
<path d="M42.25 40L46 36.25V35H31V40H42.25ZM27.25 50L26 48.75V31.25L27.25 30H51V38.75L44.75 45H31V50H27.25ZM72.25 37.5L73.5 36.25V35H58.5V37.5H72.25ZM59.75 50L53.5 43.75V31.25L54.75 30H78.5V38.75L74.75 42.5H59.75L62.25 45H76L78.5 47.5V50H59.75ZM104.711 50H85.9609L80.9609 45V35L85.9609 30H105.961V33.75L104.711 35H88.4609L85.9609 37.5H100.961V41.25L99.7109 42.5H85.9609L88.4609 45H105.961V48.75L104.711 50ZM114.77 50L108.52 43.75V30H133.52V33.75L132.27 35H113.52V41.25L117.27 45H133.52V48.75L132.27 50H114.77ZM146.02 50V35H136.02V30H161.02V35H151.02V50H146.02ZM179.77 40L183.52 36.25V35H168.52V40H179.77ZM164.77 50L163.52 48.75V31.25L164.77 30H188.52V38.75L182.27 45H168.52V50H164.77ZM192.27 50L191.02 48.75V45H208.52L211.02 42.5H191.02V30H196.02V37.5H211.02V30H216.02V45L211.02 50H192.27ZM218.52 50V32.5L221.02 30H223.52V43.75L237.27 30H242.27L243.52 31.25V50H239.77L238.52 48.75V36.25L224.77 50H218.52ZM228.52 30L226.02 27.5V25H228.52V26.25L229.77 27.5H232.27L233.52 26.25V25H236.02V27.5L233.52 30H228.52ZM252.27 50L246.02 43.75V30H271.02V33.75L269.77 35H251.02V41.25L254.77 45H271.02V48.75L269.77 50H252.27ZM293.52 40V35H279.77L278.52 36.25V38.75L279.77 40H293.52ZM273.52 50V48.75L277.27 45H276.02L273.52 42.5V33.75L277.27 30H298.52V50H293.52V45H284.77L281.02 48.75V50H273.52Z" fill="black"/>
<path d="M323.858 26.8578L336 39L323.858 51.1422V26.8578Z" fill="#071218"/>
</svg>
