<svg width="317" height="65" viewBox="0 0 317 65" fill="none" xmlns="http://www.w3.org/2000/svg">
<path d="M20 25V22.5H6.25L8.75 25H20ZM20 17.5V16.25L18.75 15H5V17.5H20ZM6.25 30L0 23.75V10H22.5L25 12.5V28.75L23.75 30H6.25ZM47.5 17.5V16.25L46.25 15H32.5V17.5H47.5ZM28.75 30L27.5 28.75V25H46.25L47.5 23.75V22.5H28.75L27.5 21.25V10H50L52.5 12.5V26.25L48.75 30H28.75Z" fill="white"/>
<path d="M8.36227 60.6V56.7H9.38227C9.68893 56.2467 9.9356 55.7533 10.1223 55.22C10.3223 54.6733 10.4623 54.0667 10.5423 53.4C10.6356 52.7333 10.6823 51.98 10.6823 51.14V48.28H17.5623V56.7H19.1023V60.6H17.7023V58H9.74227V60.6H8.36227ZM10.9423 56.7H16.0223V49.56H12.1223V51.42C12.1223 52.42 12.0223 53.3867 11.8223 54.32C11.6223 55.2533 11.3289 56.0467 10.9423 56.7ZM21.2582 58V48.28H22.8782V52.32H28.1782V48.28H29.7982V58H28.1782V53.64H22.8782V58H21.2582ZM32.8165 45.86V44.04H34.8165V45.86H32.8165ZM33.0165 58V48.28H34.6365V58H33.0165ZM37.8402 58V48.28H42.5802C43.3536 48.28 43.9869 48.38 44.4802 48.58C44.9736 48.7667 45.3402 49.0533 45.5802 49.44C45.8202 49.8133 45.9402 50.28 45.9402 50.84C45.9402 51.4533 45.7202 51.9733 45.2802 52.4C44.8536 52.8267 44.2936 53.08 43.6002 53.16V52.9C44.1469 52.9133 44.6202 53.0267 45.0202 53.24C45.4202 53.44 45.7269 53.72 45.9402 54.08C46.1536 54.44 46.2602 54.8533 46.2602 55.32C46.2602 56.1467 45.9536 56.8 45.3402 57.28C44.7269 57.76 43.8602 58 42.7402 58H37.8402ZM39.3802 56.9H42.6802C43.3336 56.9 43.8336 56.76 44.1802 56.48C44.5402 56.1867 44.7202 55.7733 44.7202 55.24C44.7202 54.7067 44.5402 54.3 44.1802 54.02C43.8336 53.74 43.3336 53.6 42.6802 53.6H39.3802V56.9ZM39.3802 52.5H42.5002C43.1002 52.5 43.5669 52.36 43.9002 52.08C44.2469 51.8 44.4202 51.4133 44.4202 50.92C44.4202 50.4267 44.2469 50.0467 43.9002 49.78C43.5669 49.5133 43.1002 49.38 42.5002 49.38H39.3802V52.5Z" fill="white"/>
<path d="M79 30V23.75L85.25 17.5H99L96.5 15H85.25L82.75 17.5H79V15L84 10H99L104 15V22.5H87.75L85.25 25H102.75L104 26.25V30H79ZM126.5 25V16.25L117.75 25H126.5ZM111.5 23.75L120.25 15H111.5V23.75ZM109 30L106.5 27.5V11.25L107.75 10H127.75L131.5 13.75V30H109Z" fill="white"/>
<path d="M80.6 58V48.28H87.42V49.58H82.22V58H80.6ZM93.3514 58.18C92.4047 58.18 91.5847 57.9733 90.8914 57.56C90.1981 57.1467 89.6581 56.5667 89.2714 55.82C88.8981 55.06 88.7114 54.1667 88.7114 53.14C88.7114 52.1133 88.8981 51.2267 89.2714 50.48C89.6581 49.72 90.1981 49.1333 90.8914 48.72C91.5847 48.3067 92.4047 48.1 93.3514 48.1C94.2981 48.1 95.1181 48.3067 95.8114 48.72C96.5047 49.1333 97.0381 49.72 97.4114 50.48C97.7981 51.2267 97.9914 52.1133 97.9914 53.14C97.9914 54.1667 97.7981 55.06 97.4114 55.82C97.0381 56.5667 96.5047 57.1467 95.8114 57.56C95.1181 57.9733 94.2981 58.18 93.3514 58.18ZM93.3514 56.88C94.2714 56.88 94.9981 56.56 95.5314 55.92C96.0781 55.2667 96.3514 54.3333 96.3514 53.12C96.3514 51.92 96.0781 51 95.5314 50.36C94.9981 49.72 94.2714 49.4 93.3514 49.4C92.4447 49.4 91.7181 49.72 91.1714 50.36C90.6247 51 90.3514 51.92 90.3514 53.12C90.3514 54.3333 90.6247 55.2667 91.1714 55.92C91.7181 56.56 92.4447 56.88 93.3514 56.88ZM99.5595 60.6V56.7H100.58C100.886 56.2467 101.133 55.7533 101.32 55.22C101.52 54.6733 101.66 54.0667 101.74 53.4C101.833 52.7333 101.88 51.98 101.88 51.14V48.28H108.76V56.7H110.3V60.6H108.9V58H100.94V60.6H99.5595ZM102.14 56.7H107.22V49.56H103.32V51.42C103.32 52.42 103.22 53.3867 103.02 54.32C102.82 55.2533 102.526 56.0467 102.14 56.7ZM112.455 58V48.28H113.935V56.46H113.435L119.555 48.28H120.935V58H119.455V49.8H119.955L113.835 58H112.455ZM124.135 58V48.28H125.755V52.32H131.055V48.28H132.675V58H131.055V53.64H125.755V58H124.135Z" fill="white"/>
<path d="M187.25 30L186 28.75V22.5H171L166 17.5V11.25L167.25 10H171V13.75L174.75 17.5H186V10H191V30H187.25ZM214.75 30L213.5 28.75V22.5H198.5L193.5 17.5V11.25L194.75 10H198.5V13.75L202.25 17.5H213.5V10H218.5V30H214.75Z" fill="white"/>
<path d="M159.38 58L163.74 52.56V53.4L159.62 48.28H161.54L164.64 52.22H164.08L167.2 48.28H169.1L165 53.36V52.62L169.34 58H167.42L164.06 53.78H164.64L161.3 58H159.38ZM171.303 58V48.28H176.043C176.816 48.28 177.45 48.38 177.943 48.58C178.436 48.7667 178.803 49.0533 179.043 49.44C179.283 49.8133 179.403 50.28 179.403 50.84C179.403 51.4533 179.183 51.9733 178.743 52.4C178.316 52.8267 177.756 53.08 177.063 53.16V52.9C177.61 52.9133 178.083 53.0267 178.483 53.24C178.883 53.44 179.19 53.72 179.403 54.08C179.616 54.44 179.723 54.8533 179.723 55.32C179.723 56.1467 179.416 56.8 178.803 57.28C178.19 57.76 177.323 58 176.203 58H171.303ZM172.843 56.9H176.143C176.796 56.9 177.296 56.76 177.643 56.48C178.003 56.1867 178.183 55.7733 178.183 55.24C178.183 54.7067 178.003 54.3 177.643 54.02C177.296 53.74 176.796 53.6 176.143 53.6H172.843V56.9ZM172.843 52.5H175.963C176.563 52.5 177.03 52.36 177.363 52.08C177.71 51.8 177.883 51.4133 177.883 50.92C177.883 50.4267 177.71 50.0467 177.363 49.78C177.03 49.5133 176.563 49.38 175.963 49.38H172.843V52.5ZM182.241 58V48.28H183.721V56.46H183.221L189.341 48.28H190.721V58H189.241V49.8H189.741L183.621 58H182.241ZM193.38 58.22L192.78 56.94C193.234 56.7533 193.607 56.5067 193.9 56.2C194.207 55.8933 194.447 55.5067 194.62 55.04C194.807 54.56 194.94 53.9733 195.02 53.28C195.1 52.5867 195.14 51.7467 195.14 50.76V48.28H202.2V58H200.58V49.58H196.66V50.82C196.66 51.9533 196.6 52.94 196.48 53.78C196.36 54.62 196.167 55.3333 195.9 55.92C195.647 56.4933 195.307 56.9667 194.88 57.34C194.467 57.7133 193.967 58.0067 193.38 58.22ZM205.405 58V48.28H206.885V56.46H206.385L212.505 48.28H213.885V58H212.405V49.8H212.905L206.785 58H205.405ZM217.084 58V48.28H218.704V52.32H224.004V48.28H225.624V58H224.004V53.64H218.704V58H217.084Z" fill="white"/>
<path d="M278.25 30L277 28.75V22.5H262L257 17.5V11.25L258.25 10H262V13.75L265.75 17.5H277V10H282V30H278.25ZM304.5 25V16.25L295.75 25H304.5ZM289.5 23.75L298.25 15H289.5V23.75ZM287 30L284.5 27.5V11.25L285.75 10H305.75L309.5 13.75V30H287Z" fill="white"/>
<path d="M257.74 58.18C256.767 58.18 255.927 57.9667 255.22 57.54C254.513 57.1133 253.967 56.52 253.58 55.76C253.207 54.9867 253.02 54.0933 253.02 53.08C253.02 52.0533 253.207 51.1667 253.58 50.42C253.967 49.6733 254.513 49.1 255.22 48.7C255.927 48.3 256.767 48.1 257.74 48.1C258.34 48.1 258.933 48.2067 259.52 48.42C260.107 48.6333 260.593 48.9333 260.98 49.32L260.42 50.5C260.033 50.1267 259.607 49.8533 259.14 49.68C258.687 49.5067 258.253 49.42 257.84 49.42C256.827 49.42 256.047 49.74 255.5 50.38C254.953 51.0067 254.68 51.9133 254.68 53.1C254.68 54.26 254.953 55.18 255.5 55.86C256.047 56.5267 256.827 56.86 257.84 56.86C258.253 56.86 258.687 56.7733 259.14 56.6C259.607 56.4267 260.033 56.1467 260.42 55.76L260.98 56.94C260.593 57.3267 260.1 57.6333 259.5 57.86C258.913 58.0733 258.327 58.18 257.74 58.18ZM267.453 58.18C266.426 58.18 265.54 57.98 264.793 57.58C264.06 57.1667 263.486 56.5867 263.073 55.84C262.673 55.0933 262.473 54.2 262.473 53.16C262.473 52.1467 262.673 51.2667 263.073 50.52C263.473 49.76 264.02 49.1667 264.713 48.74C265.42 48.3133 266.233 48.1 267.153 48.1C268.033 48.1 268.786 48.2933 269.413 48.68C270.04 49.0667 270.52 49.6133 270.853 50.32C271.2 51.0267 271.373 51.8733 271.373 52.86V53.48H263.713V52.42H270.293L269.973 52.68C269.973 51.6133 269.733 50.7867 269.253 50.2C268.786 49.6 268.1 49.3 267.193 49.3C266.513 49.3 265.933 49.46 265.453 49.78C264.986 50.0867 264.633 50.52 264.393 51.08C264.153 51.6267 264.033 52.2667 264.033 53V53.12C264.033 53.9333 264.16 54.62 264.413 55.18C264.68 55.74 265.073 56.1667 265.593 56.46C266.113 56.74 266.733 56.88 267.453 56.88C268.026 56.88 268.58 56.7933 269.113 56.62C269.66 56.4333 270.173 56.1333 270.653 55.72L271.213 56.86C270.773 57.26 270.213 57.58 269.533 57.82C268.853 58.06 268.16 58.18 267.453 58.18ZM273.893 58V48.28H275.513V52.34H277.333L280.513 48.28H282.293L278.653 53L278.193 52.48C278.566 52.52 278.893 52.6133 279.173 52.76C279.453 52.9067 279.72 53.1333 279.973 53.44C280.226 53.7333 280.5 54.1333 280.793 54.64L282.793 58H281.053L279.293 55.06C279.066 54.6867 278.853 54.4 278.653 54.2C278.453 53.9867 278.226 53.84 277.973 53.76C277.72 53.68 277.406 53.64 277.033 53.64H275.513V58H273.893ZM285.56 61.6L287.38 57.5V58.2L283.12 48.28H284.88L288.36 56.8H287.82L291.34 48.28H293.04L287.26 61.6H285.56ZM294.909 58V48.28H296.529V52.32H301.829V48.28H303.449V58H301.829V53.64H296.529V58H294.909ZM305.587 60.6V56.7H306.607C306.914 56.2467 307.16 55.7533 307.347 55.22C307.547 54.6733 307.687 54.0667 307.767 53.4C307.86 52.7333 307.907 51.98 307.907 51.14V48.28H314.787V56.7H316.327V60.6H314.927V58H306.967V60.6H305.587ZM308.167 56.7H313.247V49.56H309.347V51.42C309.347 52.42 309.247 53.3867 309.047 54.32C308.847 55.2533 308.554 56.0467 308.167 56.7Z" fill="white"/>
</svg>
