<svg width="150" height="135" viewBox="0 0 150 135" fill="none" xmlns="http://www.w3.org/2000/svg">
<path fill-rule="evenodd" clip-rule="evenodd" d="M4.08163 2.70359C4.37175 2.31744 4.7154 1.9738 5.10154 1.68368C5.95434 1.04295 7.01446 0.663269 8.16326 0.663269H133.673C134.822 0.663269 135.882 1.04295 136.735 1.68368C137.121 1.9738 137.465 2.31744 137.755 2.70359C138.396 3.55639 138.776 4.61651 138.776 5.76531V102.704H125.51V119.031H5.10204C2.28426 119.031 0 116.746 0 113.929V91.4796C0 89.5777 1.30079 87.9797 3.06122 87.5266V5.76531C3.06122 4.61651 3.44091 3.55639 4.08163 2.70359ZM6.12245 93.5204H119.388V112.908H6.12245V93.5204ZM10.2041 87.398H121.429C123.683 87.398 125.51 89.2254 125.51 91.4796V95.5612H131.633V7.80613H10.2041V87.398Z" fill="#EFEFEF"/>
<path fill-rule="evenodd" clip-rule="evenodd" d="M30.6933 103.332L26.7495 91.7777L34.4751 89.1407L37.7116 98.6225H95.9184V106.786H35.5218C33.3392 106.786 31.3984 105.397 30.6933 103.332Z" fill="#EFEFEF"/>
<path d="M92.8572 42.5C92.8572 39.6822 95.1414 37.3979 97.9592 37.3979H144.898C147.716 37.3979 150 39.6822 150 42.5V129.235C150 132.052 147.716 134.337 144.898 134.337H97.9592C95.1414 134.337 92.8572 132.052 92.8572 129.235V42.5Z" fill="#071218"/>
<path fill-rule="evenodd" clip-rule="evenodd" d="M98.9796 43.5204V128.214H143.878V43.5204H98.9796ZM97.9592 37.3979C95.1414 37.3979 92.8572 39.6822 92.8572 42.5V129.235C92.8572 132.052 95.1414 134.337 97.9592 134.337H144.898C147.716 134.337 150 132.052 150 129.235V42.5C150 39.6822 147.716 37.3979 144.898 37.3979H97.9592Z" fill="#EFEFEF"/>
<path fill-rule="evenodd" clip-rule="evenodd" d="M111.735 121.071C111.735 118.817 113.562 116.99 115.816 116.99H128.571C130.826 116.99 132.653 118.817 132.653 121.071C132.653 123.326 130.826 125.153 128.571 125.153H115.816C113.562 125.153 111.735 123.326 111.735 121.071Z" fill="#EFEFEF"/>
<path fill-rule="evenodd" clip-rule="evenodd" d="M104.921 39.1366C106.779 38.4732 108.822 39.4413 109.486 41.2988L111.19 46.0714H131.318L133.452 41.0932C134.229 39.2802 136.329 38.4404 138.142 39.2174C139.955 39.9943 140.794 42.0939 140.017 43.9069L137.486 49.8128C136.602 51.8764 134.573 53.2143 132.328 53.2143H110.112C107.74 53.2143 105.624 51.7233 104.826 49.4897L102.759 43.7012C102.096 41.8437 103.064 39.8001 104.921 39.1366Z" fill="#EFEFEF"/>
<path d="M128.634 93.6224V79.2347H132.389V93.6224H128.634Z" fill="#EFEFEF"/>
<path d="M119.735 93.8469C117.64 93.8469 116.034 93.3163 114.918 92.2551C113.816 91.1939 113.265 89.6088 113.265 87.5V79.2347H117.02V87.5408C117.02 88.5884 117.252 89.3775 117.714 89.9082C118.177 90.4388 118.85 90.7041 119.735 90.7041C120.606 90.7041 121.272 90.4388 121.735 89.9082C122.197 89.3775 122.429 88.5884 122.429 87.5408V79.2347H126.123V87.5C126.123 89.6088 125.578 91.1939 124.49 92.2551C123.415 93.3163 121.83 93.8469 119.735 93.8469Z" fill="#EFEFEF"/>
<path d="M68.4656 60.0203L75.5102 50.7288V52.6714L68.606 43.5204H73.5911L77.9208 49.5352H76.5166L80.8463 43.5204H85.8548L78.9272 52.6714V50.7288L85.9718 60.0203H80.9634L76.54 53.865H77.8974L73.4741 60.0203H68.4656Z" fill="#4AB4F5"/>
<path d="M60.4804 60.2777C58.0776 60.2777 56.2364 59.6692 54.957 58.4522C53.6932 57.2352 53.0613 55.4175 53.0613 52.999V43.5204H57.3676V53.0459C57.3676 54.2473 57.6329 55.1522 58.1634 55.7607C58.6939 56.3692 59.4662 56.6735 60.4804 56.6735C61.479 56.6735 62.2435 56.3692 62.774 55.7607C63.3045 55.1522 63.5697 54.2473 63.5697 53.0459V43.5204H67.8059V52.999C67.8059 55.4175 67.1818 57.2352 65.9335 58.4522C64.7009 59.6692 62.8832 60.2777 60.4804 60.2777Z" fill="#4AB4F5"/>
<g filter="url(#filter0_f_618_2585)">
<path d="M68.4656 60.0203L75.5102 50.7288V52.6714L68.606 43.5204H73.5911L77.9208 49.5352H76.5166L80.8463 43.5204H85.8548L78.9272 52.6714V50.7288L85.9718 60.0203H80.9634L76.54 53.865H77.8974L73.4741 60.0203H68.4656Z" fill="#4AB4F5"/>
<path d="M60.4804 60.2777C58.0776 60.2777 56.2364 59.6692 54.957 58.4522C53.6932 57.2352 53.0613 55.4175 53.0613 52.999V43.5204H57.3676V53.0459C57.3676 54.2473 57.6329 55.1522 58.1634 55.7607C58.6939 56.3692 59.4662 56.6735 60.4804 56.6735C61.479 56.6735 62.2435 56.3692 62.774 55.7607C63.3045 55.1522 63.5697 54.2473 63.5697 53.0459V43.5204H67.8059V52.999C67.8059 55.4175 67.1818 57.2352 65.9335 58.4522C64.7009 59.6692 62.8832 60.2777 60.4804 60.2777Z" fill="#4AB4F5"/>
</g>
<path d="M35.9058 93.5204H92.8571V98.6224H37.6602L35.9058 93.5204Z" fill="#4AB4F5"/>
<g filter="url(#filter1_f_618_2585)">
<path d="M35.9058 93.5204H92.8571V98.6224H37.6602L35.9058 93.5204Z" fill="#4AB4F5"/>
</g>
<path d="M111.225 46.0714L110.204 43.5204H132.653L131.633 46.0714H111.225Z" fill="#4AB4F5"/>
<g filter="url(#filter2_f_618_2585)">
<path d="M111.225 46.0714L110.204 43.5204H132.653L131.633 46.0714H111.225Z" fill="#4AB4F5"/>
</g>
<defs>
<filter id="filter0_f_618_2585" x="49.0613" y="39.5204" width="40.9106" height="24.7573" filterUnits="userSpaceOnUse" color-interpolation-filters="sRGB">
<feFlood flood-opacity="0" result="BackgroundImageFix"/>
<feBlend mode="normal" in="SourceGraphic" in2="BackgroundImageFix" result="shape"/>
<feGaussianBlur stdDeviation="2" result="effect1_foregroundBlur_618_2585"/>
</filter>
<filter id="filter1_f_618_2585" x="31.9058" y="89.5204" width="64.9514" height="13.1021" filterUnits="userSpaceOnUse" color-interpolation-filters="sRGB">
<feFlood flood-opacity="0" result="BackgroundImageFix"/>
<feBlend mode="normal" in="SourceGraphic" in2="BackgroundImageFix" result="shape"/>
<feGaussianBlur stdDeviation="2" result="effect1_foregroundBlur_618_2585"/>
</filter>
<filter id="filter2_f_618_2585" x="106.204" y="39.5204" width="30.449" height="10.551" filterUnits="userSpaceOnUse" color-interpolation-filters="sRGB">
<feFlood flood-opacity="0" result="BackgroundImageFix"/>
<feBlend mode="normal" in="SourceGraphic" in2="BackgroundImageFix" result="shape"/>
<feGaussianBlur stdDeviation="2" result="effect1_foregroundBlur_618_2585"/>
</filter>
</defs>
</svg>
