<svg width="432" height="39" viewBox="0 0 432 39" fill="none" xmlns="http://www.w3.org/2000/svg">
<g clip-path="url(#clip0_818_3161)">
<path d="M186.239 0.499999L148.806 38.5L171.358 38.5L208.768 0.5L186.239 0.499999Z" fill="#EFEFEF"/>
<path d="M223.44 0.499999L186.007 38.5L208.56 38.5L245.97 0.5L223.44 0.499999Z" fill="#EFEFEF"/>
<path d="M260.642 0.499999L223.232 38.5L245.761 38.5L283.171 0.5L260.642 0.499999Z" fill="#EFEFEF"/>
<path d="M297.843 0.499999L260.433 38.5L282.963 38.5L320.396 0.5L297.843 0.499999Z" fill="#EFEFEF"/>
<path d="M37.41 0.499999L-3.21786e-05 38.5L22.5294 38.5L59.9395 0.5L37.41 0.499999Z" fill="#EFEFEF"/>
<path d="M74.6114 0.499999L37.2014 38.5L59.7309 38.5L97.1641 0.5L74.6114 0.499999Z" fill="#EFEFEF"/>
<path d="M111.813 0.499999L74.4029 38.5L96.9323 38.5L134.365 0.5L111.813 0.499999Z" fill="#EFEFEF"/>
<path d="M149.014 0.499999L111.604 38.5L134.134 38.5L171.567 0.5L149.014 0.499999Z" fill="#EFEFEF"/>
<path d="M335.045 0.499999L297.635 38.5L320.164 38.5L357.597 0.5L335.045 0.499999Z" fill="#EFEFEF"/>
<path d="M372.246 0.499999L334.836 38.5L357.365 38.5L394.799 0.5L372.246 0.499999Z" fill="#EFEFEF"/>
<path d="M409.471 0.499999L372.037 38.5L394.59 38.5L432 0.5L409.471 0.499999Z" fill="#EFEFEF"/>
</g>
<defs>
<clipPath id="clip0_818_3161">
<rect width="38" height="432" fill="white" transform="translate(432 0.5) rotate(90)"/>
</clipPath>
</defs>
</svg>
