<svg width="529" height="89" viewBox="0 0 529 89" fill="none" xmlns="http://www.w3.org/2000/svg">
<g clip-path="url(#clip0_818_3184)">
<mask id="mask0_818_3184" style="mask-type:luminance" maskUnits="userSpaceOnUse" x="0" y="0" width="529" height="89">
<path d="M529 0H0V89H529V0Z" fill="white"/>
</mask>
<g mask="url(#mask0_818_3184)">
<path d="M-103.381 -21.3791L5.65234 110.379" stroke="#EFEFEF" stroke-width="3" stroke-miterlimit="10"/>
<path d="M-80.2628 -21.3791L28.7138 110.379" stroke="#EFEFEF" stroke-width="3" stroke-miterlimit="10"/>
<path d="M-57.1449 -21.3791L51.8317 110.379" stroke="#EFEFEF" stroke-width="3" stroke-miterlimit="10"/>
<path d="M-34.0834 -21.3791L74.8932 110.379" stroke="#EFEFEF" stroke-width="3" stroke-miterlimit="10"/>
<path d="M-10.9655 -21.3791L98.0112 110.379" stroke="#EFEFEF" stroke-width="3" stroke-miterlimit="10"/>
<path d="M12.0959 -21.3791L121.129 110.379" stroke="#EFEFEF" stroke-width="3" stroke-miterlimit="10"/>
<path d="M35.2139 -21.3791L144.191 110.379" stroke="#EFEFEF" stroke-width="3" stroke-miterlimit="10"/>
<path d="M58.3319 -21.3791L167.309 110.379" stroke="#EFEFEF" stroke-width="3" stroke-miterlimit="10"/>
<path d="M81.3934 -21.3791L190.37 110.379" stroke="#EFEFEF" stroke-width="3" stroke-miterlimit="10"/>
<path d="M104.511 -21.3791L213.488 110.379" stroke="#EFEFEF" stroke-width="3" stroke-miterlimit="10"/>
<path d="M127.573 -21.3791L236.606 110.379" stroke="#EFEFEF" stroke-width="3" stroke-miterlimit="10"/>
<path d="M150.691 -21.3791L259.667 110.379" stroke="#EFEFEF" stroke-width="3" stroke-miterlimit="10"/>
<path d="M173.752 -21.3791L282.785 110.379" stroke="#EFEFEF" stroke-width="3" stroke-miterlimit="10"/>
<path d="M196.87 -21.3791L305.847 110.379" stroke="#EFEFEF" stroke-width="3" stroke-miterlimit="10"/>
<path d="M219.988 -21.3791L328.965 110.379" stroke="#EFEFEF" stroke-width="3" stroke-miterlimit="10"/>
<path d="M243.05 -21.3791L352.026 110.379" stroke="#EFEFEF" stroke-width="3" stroke-miterlimit="10"/>
<path d="M266.167 -21.3791L375.144 110.379" stroke="#EFEFEF" stroke-width="3" stroke-miterlimit="10"/>
<path d="M289.229 -21.3791L398.262 110.379" stroke="#EFEFEF" stroke-width="3" stroke-miterlimit="10"/>
<path d="M312.347 -21.3791L421.324 110.379" stroke="#EFEFEF" stroke-width="3" stroke-miterlimit="10"/>
<path d="M335.465 -21.3791L444.441 110.379" stroke="#EFEFEF" stroke-width="3" stroke-miterlimit="10"/>
<path d="M358.526 -21.3791L467.503 110.379" stroke="#EFEFEF" stroke-width="3" stroke-miterlimit="10"/>
<path d="M381.644 -21.3791L490.621 110.379" stroke="#EFEFEF" stroke-width="3" stroke-miterlimit="10"/>
<path d="M404.706 -21.3791L513.682 110.379" stroke="#EFEFEF" stroke-width="3" stroke-miterlimit="10"/>
<path d="M427.824 -21.3791L536.8 110.379" stroke="#EFEFEF" stroke-width="3" stroke-miterlimit="10"/>
<path d="M450.942 -21.3791L559.918 110.379" stroke="#EFEFEF" stroke-width="3" stroke-miterlimit="10"/>
<path d="M474.003 -21.3791L582.98 110.379" stroke="#EFEFEF" stroke-width="3" stroke-miterlimit="10"/>
<path d="M497.121 -21.3791L606.098 110.379" stroke="#EFEFEF" stroke-width="3" stroke-miterlimit="10"/>
</g>
</g>
<defs>
<clipPath id="clip0_818_3184">
<rect width="529" height="89" fill="white"/>
</clipPath>
</defs>
</svg>
