<svg width="96" height="96" viewBox="0 0 96 96" fill="none" xmlns="http://www.w3.org/2000/svg">
<g filter="url(#filter0_f_504_951)">
<path fill-rule="evenodd" clip-rule="evenodd" d="M48 83.0286C67.3458 83.0286 83.0286 67.3458 83.0286 48C83.0286 28.6542 67.3458 12.9714 48 12.9714C28.6542 12.9714 12.9714 28.6542 12.9714 48C12.9714 67.3458 28.6542 83.0286 48 83.0286ZM48 88C70.0914 88 88 70.0914 88 48C88 25.9086 70.0914 8 48 8C25.9086 8 8 25.9086 8 48C8 70.0914 25.9086 88 48 88Z" fill="#4AB4F5"/>
<path fill-rule="evenodd" clip-rule="evenodd" d="M54.9756 74.4537C57.5588 67.9311 59.2662 58.5803 59.2662 48C59.2662 37.4197 57.5588 28.0689 54.9756 21.5463C53.6783 18.2705 52.2572 15.9551 50.9334 14.5413C49.6175 13.1359 48.757 12.9714 48.396 12.9714C48.035 12.9714 47.1746 13.1359 45.8587 14.5413C44.5349 15.9551 43.1138 18.2705 41.8165 21.5463C39.2332 28.0689 37.5258 37.4197 37.5258 48C37.5258 58.5803 39.2332 67.9311 41.8165 74.4537C43.1138 77.7296 44.5349 80.0449 45.8587 81.4587C47.1746 82.8641 48.035 83.0286 48.396 83.0286C48.757 83.0286 49.6175 82.8641 50.9334 81.4587C52.2572 80.0449 53.6783 77.7296 54.9756 74.4537ZM48.396 88C57.1451 88 64.2376 70.0914 64.2376 48C64.2376 25.9086 57.1451 8 48.396 8C39.647 8 32.5544 25.9086 32.5544 48C32.5544 70.0914 39.647 88 48.396 88Z" fill="#4AB4F5"/>
<path fill-rule="evenodd" clip-rule="evenodd" d="M73.6331 72.9505C73.6331 72.926 73.6158 72.4385 72.506 71.5964C71.4297 70.7798 69.6868 69.9256 67.2537 69.1609C64.8478 68.4048 61.9386 67.7894 58.6842 67.3658C55.4345 66.9427 51.9371 66.7233 48.396 66.7233C44.855 66.7233 41.3575 66.9427 38.1079 67.3658C34.8535 67.7894 31.9443 68.4048 29.5383 69.1609C27.1052 69.9256 25.3623 70.7798 24.286 71.5964C23.1762 72.4385 23.159 72.926 23.159 72.9505L18.1876 72.9505C18.1876 70.6867 19.6044 68.9081 21.281 67.636C22.9911 66.3385 25.3323 65.2717 28.0478 64.4182C30.7905 63.5562 33.9935 62.888 37.4661 62.436C40.9434 61.9833 44.6559 61.7519 48.396 61.7519C52.1362 61.7519 55.8487 61.9833 59.326 62.436C62.7985 62.888 66.0016 63.5563 68.7443 64.4182C71.4597 65.2717 73.8009 66.3385 75.511 67.636C77.1876 68.9082 78.6045 70.6867 78.6045 72.9505L73.6331 72.9505Z" fill="#4AB4F5"/>
<path fill-rule="evenodd" clip-rule="evenodd" d="M23.1589 22.2574C23.1589 22.282 23.1762 22.7694 24.286 23.6115C25.3623 24.4281 27.1052 25.2823 29.5383 26.047C31.9442 26.8031 34.8534 27.4185 38.1078 27.8422C41.3575 28.2652 44.8549 28.4846 48.396 28.4846C51.937 28.4846 55.4345 28.2652 58.6841 27.8422C61.9385 27.4185 64.8477 26.8031 67.2536 26.047C69.6868 25.2823 71.4297 24.4281 72.506 23.6115C73.6158 22.7694 73.633 22.282 73.633 22.2574H78.6044C78.6044 24.5213 77.1876 26.2998 75.511 27.5719C73.8009 28.8694 71.4597 29.9363 68.7442 30.7897C66.0015 31.6517 62.7985 32.3199 59.3259 32.772C55.8486 33.2246 52.1361 33.456 48.396 33.456C44.6558 33.456 40.9433 33.2246 37.466 32.772C33.9935 32.3199 30.7904 31.6517 28.0477 30.7897C25.3323 29.9363 22.9911 28.8694 21.281 27.5719C19.6044 26.2998 18.1875 24.5213 18.1875 22.2574H23.1589Z" fill="#4AB4F5"/>
<path fill-rule="evenodd" clip-rule="evenodd" d="M8 50.0897V45.1183H88V50.0897H8Z" fill="#4AB4F5"/>
</g>
<path fill-rule="evenodd" clip-rule="evenodd" d="M48 83.0286C67.3458 83.0286 83.0286 67.3458 83.0286 48C83.0286 28.6542 67.3458 12.9714 48 12.9714C28.6542 12.9714 12.9714 28.6542 12.9714 48C12.9714 67.3458 28.6542 83.0286 48 83.0286ZM48 88C70.0914 88 88 70.0914 88 48C88 25.9086 70.0914 8 48 8C25.9086 8 8 25.9086 8 48C8 70.0914 25.9086 88 48 88Z" fill="#EFEFEF"/>
<path fill-rule="evenodd" clip-rule="evenodd" d="M54.9756 74.4537C57.5588 67.9311 59.2662 58.5803 59.2662 48C59.2662 37.4197 57.5588 28.0689 54.9756 21.5463C53.6783 18.2705 52.2572 15.9551 50.9334 14.5413C49.6175 13.1359 48.757 12.9714 48.396 12.9714C48.035 12.9714 47.1746 13.1359 45.8587 14.5413C44.5349 15.9551 43.1138 18.2705 41.8165 21.5463C39.2332 28.0689 37.5258 37.4197 37.5258 48C37.5258 58.5803 39.2332 67.9311 41.8165 74.4537C43.1138 77.7296 44.5349 80.0449 45.8587 81.4587C47.1746 82.8641 48.035 83.0286 48.396 83.0286C48.757 83.0286 49.6175 82.8641 50.9334 81.4587C52.2572 80.0449 53.6783 77.7296 54.9756 74.4537ZM48.396 88C57.1451 88 64.2376 70.0914 64.2376 48C64.2376 25.9086 57.1451 8 48.396 8C39.647 8 32.5544 25.9086 32.5544 48C32.5544 70.0914 39.647 88 48.396 88Z" fill="#EFEFEF"/>
<path fill-rule="evenodd" clip-rule="evenodd" d="M73.6331 72.9505C73.6331 72.926 73.6158 72.4385 72.506 71.5964C71.4297 70.7798 69.6868 69.9256 67.2537 69.1609C64.8478 68.4048 61.9386 67.7894 58.6842 67.3658C55.4345 66.9427 51.9371 66.7233 48.396 66.7233C44.855 66.7233 41.3575 66.9427 38.1079 67.3658C34.8535 67.7894 31.9443 68.4048 29.5383 69.1609C27.1052 69.9256 25.3623 70.7798 24.286 71.5964C23.1762 72.4385 23.159 72.926 23.159 72.9505L18.1876 72.9505C18.1876 70.6867 19.6044 68.9081 21.281 67.636C22.9911 66.3385 25.3323 65.2717 28.0478 64.4182C30.7905 63.5562 33.9935 62.888 37.4661 62.436C40.9434 61.9833 44.6559 61.7519 48.396 61.7519C52.1362 61.7519 55.8487 61.9833 59.326 62.436C62.7985 62.888 66.0016 63.5563 68.7443 64.4182C71.4597 65.2717 73.8009 66.3385 75.511 67.636C77.1876 68.9082 78.6045 70.6867 78.6045 72.9505L73.6331 72.9505Z" fill="#EFEFEF"/>
<path fill-rule="evenodd" clip-rule="evenodd" d="M23.1589 22.2574C23.1589 22.282 23.1762 22.7694 24.286 23.6115C25.3623 24.4281 27.1052 25.2823 29.5383 26.047C31.9442 26.8031 34.8534 27.4185 38.1078 27.8422C41.3575 28.2652 44.8549 28.4846 48.396 28.4846C51.937 28.4846 55.4345 28.2652 58.6841 27.8422C61.9385 27.4185 64.8477 26.8031 67.2536 26.047C69.6868 25.2823 71.4297 24.4281 72.506 23.6115C73.6158 22.7694 73.633 22.282 73.633 22.2574H78.6044C78.6044 24.5213 77.1876 26.2998 75.511 27.5719C73.8009 28.8694 71.4597 29.9363 68.7442 30.7897C66.0015 31.6517 62.7985 32.3199 59.3259 32.772C55.8486 33.2246 52.1361 33.456 48.396 33.456C44.6558 33.456 40.9433 33.2246 37.466 32.772C33.9935 32.3199 30.7904 31.6517 28.0477 30.7897C25.3323 29.9363 22.9911 28.8694 21.281 27.5719C19.6044 26.2998 18.1875 24.5213 18.1875 22.2574H23.1589Z" fill="#EFEFEF"/>
<path fill-rule="evenodd" clip-rule="evenodd" d="M8 50.0897V45.1183H88V50.0897H8Z" fill="#EFEFEF"/>
<defs>
<filter id="filter0_f_504_951" x="0" y="0" width="96" height="96" filterUnits="userSpaceOnUse" color-interpolation-filters="sRGB">
<feFlood flood-opacity="0" result="BackgroundImageFix"/>
<feBlend mode="normal" in="SourceGraphic" in2="BackgroundImageFix" result="shape"/>
<feGaussianBlur stdDeviation="4" result="effect1_foregroundBlur_504_951"/>
</filter>
</defs>
</svg>
